solid Rover v4
facet normal 2.185751579730777e-15 -8.326672684688631e-16 1.0
  outer loop
    vertex 49.99999999999968 -54.699999999998795 142.98098799999798
    vertex 47.60770915395411 -31.671382362507412 142.980987999998
    vertex -50.000000000000384 -54.69999999999884 142.98098799999815
  endloop
endfacet
facet normal 2.185751579730777e-15 -8.326672684688631e-16 1.0
  outer loop
    vertex 47.60770915395411 -31.671382362507412 142.980987999998
    vertex 49.99999999999968 -54.699999999998795 142.98098799999798
    vertex 48.08625535862771 -31.3344318710525 142.980987999998
  endloop
endfacet
facet normal 2.185751579730777e-15 -8.326672684688631e-16 1.0
  outer loop
    vertex 48.08625535862771 -31.3344318710525 142.980987999998
    vertex 49.99999999999968 -54.699999999998795 142.98098799999798
    vertex 48.39942903187951 -30.839998504377867 142.98098799999798
  endloop
endfacet
facet normal 2.185751579730777e-15 -8.326672684688631e-16 1.0
  outer loop
    vertex 48.39942903187951 -30.839998504377867 142.98098799999798
    vertex 49.99999999999968 -54.699999999998795 142.98098799999798
    vertex 48.49955232088332 -30.26335526051017 142.98098799999798
  endloop
endfacet
facet normal 2.185751579730777e-15 -8.326672684688631e-16 1.0
  outer loop
    vertex 48.49955232088332 -30.26335526051017 142.98098799999798
    vertex 49.99999999999968 -54.699999999998795 142.98098799999798
    vertex 49.999999999999545 54.5000000000013 142.98098799999806
  endloop
endfacet
facet normal 2.185751579730777e-15 -8.326672684688631e-16 1.0
  outer loop
    vertex -50.000000000000384 -54.69999999999884 142.98098799999815
    vertex 47.60770915395411 -31.671382362507412 142.980987999998
    vertex 47.03664473948819 -31.7995523208825 142.980987999998
  endloop
endfacet
facet normal 2.185751579730777e-15 -8.326672684688631e-16 1.0
  outer loop
    vertex -50.000000000000384 -54.69999999999884 142.98098799999815
    vertex 47.03664473948819 -31.7995523208825 142.980987999998
    vertex -47.00000000000035 -31.799999999998914 142.98098799999823
  endloop
endfacet
facet normal 2.185751579730777e-15 -8.326672684688631e-16 1.0
  outer loop
    vertex 48.49955232088332 -30.26335526051017 142.98098799999798
    vertex 49.999999999999545 54.5000000000013 142.98098799999806
    vertex 48.37138236250824 -29.69229084604423 142.98098799999798
  endloop
endfacet
facet normal 2.185751579730777e-15 -8.326672684688631e-16 1.0
  outer loop
    vertex 48.37138236250824 -29.69229084604423 142.98098799999798
    vertex 49.999999999999545 54.5000000000013 142.98098799999806
    vertex 48.034431871053314 -29.213744641370656 142.98098799999798
  endloop
endfacet
facet normal 2.185751579730777e-15 -8.326672684688631e-16 1.0
  outer loop
    vertex 48.034431871053314 -29.213744641370656 142.98098799999798
    vertex 49.999999999999545 54.5000000000013 142.98098799999806
    vertex 47.539998504378694 -28.900570968118835 142.980987999998
  endloop
endfacet
facet normal 2.185751579730777e-15 -8.326672684688631e-16 1.0
  outer loop
    vertex 47.539998504378694 -28.900570968118835 142.980987999998
    vertex 49.999999999999545 54.5000000000013 142.98098799999806
    vertex 46.96335526051099 -28.800447679114992 142.980987999998
  endloop
endfacet
facet normal 2.185751579730777e-15 -8.326672684688631e-16 1.0
  outer loop
    vertex 46.96335526051099 -28.800447679114992 142.980987999998
    vertex 49.999999999999545 54.5000000000013 142.98098799999806
    vertex 48.48984050229593 29.925714952687027 142.98098799999806
  endloop
endfacet
facet normal 2.185751579730777e-15 -8.326672684688631e-16 1.0
  outer loop
    vertex 46.96335526051099 -28.800447679114992 142.980987999998
    vertex 48.48984050229593 29.925714952687027 142.98098799999806
    vertex 48.309737146661384 29.36884433486957 142.98098799999806
  endloop
endfacet
facet normal 2.185751579730777e-15 -8.326672684688631e-16 1.0
  outer loop
    vertex 46.96335526051099 -28.800447679114992 142.980987999998
    vertex 48.309737146661384 29.36884433486957 142.98098799999806
    vertex 47.93023818324437 28.92328553912581 142.98098799999806
  endloop
endfacet
facet normal 2.185751579730777e-15 -8.326672684688631e-16 1.0
  outer loop
    vertex 46.96335526051099 -28.800447679114992 142.980987999998
    vertex 47.93023818324437 28.92328553912581 142.98098799999806
    vertex -47.00000000000047 -28.799999999998885 142.98098799999823
  endloop
endfacet
facet normal 2.185751579730777e-15 -8.326672684688631e-16 1.0
  outer loop
    vertex -47.00000000000047 -28.799999999998885 142.98098799999823
    vertex 47.93023818324437 28.92328553912581 142.98098799999806
    vertex 47.409118889058504 28.656870853107186 142.98098799999806
  endloop
endfacet
facet normal 2.185751579730777e-15 -8.326672684688631e-16 1.0
  outer loop
    vertex -47.00000000000047 -28.799999999998885 142.98098799999823
    vertex 47.409118889058504 28.656870853107186 142.98098799999806
    vertex 46.82571495268533 28.61015949770489 142.980987999998
  endloop
endfacet
facet normal 2.185751579730777e-15 -8.326672684688631e-16 1.0
  outer loop
    vertex -47.00000000000047 -28.799999999998885 142.98098799999823
    vertex 46.82571495268533 28.61015949770489 142.980987999998
    vertex -47.0000000000005 28.600000000001074 142.9809879999982
  endloop
endfacet
facet normal 2.185751579730777e-15 -8.326672684688631e-16 1.0
  outer loop
    vertex 48.48984050229593 29.925714952687027 142.98098799999806
    vertex 49.999999999999545 54.5000000000013 142.98098799999806
    vertex 48.44312914689363 30.50911888906018 142.98098799999806
  endloop
endfacet
facet normal 2.185751579730777e-15 -8.326672684688631e-16 1.0
  outer loop
    vertex 48.44312914689363 30.50911888906018 142.98098799999806
    vertex 49.999999999999545 54.5000000000013 142.98098799999806
    vertex 48.176714460875004 31.03023818324608 142.98098799999806
  endloop
endfacet
facet normal 2.185751579730777e-15 -8.326672684688631e-16 1.0
  outer loop
    vertex 48.176714460875004 31.03023818324608 142.98098799999806
    vertex 49.999999999999545 54.5000000000013 142.98098799999806
    vertex 47.73115566513125 31.409737146663094 142.980987999998
  endloop
endfacet
facet normal 2.185751579730777e-15 -8.326672684688631e-16 1.0
  outer loop
    vertex 47.73115566513125 31.409737146663094 142.980987999998
    vertex 49.999999999999545 54.5000000000013 142.98098799999806
    vertex 47.17428504731379 31.58984050229764 142.980987999998
  endloop
endfacet
facet normal 2.185751579730777e-15 -8.326672684688631e-16 1.0
  outer loop
    vertex 47.17428504731379 31.58984050229764 142.980987999998
    vertex 49.999999999999545 54.5000000000013 142.98098799999806
    vertex -47.00000000000052 31.60000000000106 142.9809879999982
  endloop
endfacet
facet normal 2.185751579730777e-15 -8.326672684688631e-16 1.0
  outer loop
    vertex -47.00000000000052 31.60000000000106 142.9809879999982
    vertex 49.999999999999545 54.5000000000013 142.98098799999806
    vertex -50.00000000000052 54.500000000001144 142.98098799999823
  endloop
endfacet
facet normal 2.185751579730777e-15 -8.326672684688631e-16 1.0
  outer loop
    vertex -50.000000000000384 -54.69999999999884 142.98098799999815
    vertex -48.500000000000426 -30.299999999998928 142.9809879999982
    vertex -50.00000000000052 54.500000000001144 142.98098799999823
  endloop
endfacet
facet normal 2.185751579730777e-15 -8.326672684688631e-16 1.0
  outer loop
    vertex -48.500000000000426 -30.299999999998928 142.9809879999982
    vertex -50.000000000000384 -54.69999999999884 142.98098799999815
    vertex -48.3858192987673 -30.87402514854656 142.9809879999982
  endloop
endfacet
facet normal 2.185751579730777e-15 -8.326672684688631e-16 1.0
  outer loop
    vertex -48.3858192987673 -30.87402514854656 142.9809879999982
    vertex -50.000000000000384 -54.69999999999884 142.98098799999815
    vertex -48.060660171780185 -31.36066017177873 142.98098799999823
  endloop
endfacet
facet normal 2.185751579730777e-15 -8.326672684688631e-16 1.0
  outer loop
    vertex -48.060660171780185 -31.36066017177873 142.98098799999823
    vertex -50.000000000000384 -54.69999999999884 142.98098799999815
    vertex -47.57402514854798 -31.685819298765825 142.98098799999823
  endloop
endfacet
facet normal 2.185751579730777e-15 -8.326672684688631e-16 1.0
  outer loop
    vertex -47.57402514854798 -31.685819298765825 142.98098799999823
    vertex -50.000000000000384 -54.69999999999884 142.98098799999815
    vertex -47.00000000000035 -31.799999999998914 142.98098799999823
  endloop
endfacet
facet normal 2.185751579730777e-15 -8.326672684688631e-16 1.0
  outer loop
    vertex -50.00000000000052 54.500000000001144 142.98098799999823
    vertex -48.500000000000426 -30.299999999998928 142.9809879999982
    vertex -48.385819298767366 -29.725974851451294 142.9809879999982
  endloop
endfacet
facet normal 2.185751579730777e-15 -8.326672684688631e-16 1.0
  outer loop
    vertex -50.00000000000052 54.500000000001144 142.98098799999823
    vertex -48.385819298767366 -29.725974851451294 142.9809879999982
    vertex -48.06066017178027 -29.239339828219112 142.9809879999982
  endloop
endfacet
facet normal 2.185751579730777e-15 -8.326672684688631e-16 1.0
  outer loop
    vertex -50.00000000000052 54.500000000001144 142.98098799999823
    vertex -48.06066017178027 -29.239339828219112 142.9809879999982
    vertex -47.5740251485481 -28.91418070123196 142.9809879999982
  endloop
endfacet
facet normal 2.185751579730777e-15 -8.326672684688631e-16 1.0
  outer loop
    vertex -50.00000000000052 54.500000000001144 142.98098799999823
    vertex -47.5740251485481 -28.91418070123196 142.9809879999982
    vertex -47.00000000000047 -28.799999999998885 142.98098799999823
  endloop
endfacet
facet normal 2.185751579730777e-15 -8.326672684688631e-16 1.0
  outer loop
    vertex -50.00000000000052 54.500000000001144 142.98098799999823
    vertex -47.00000000000047 -28.799999999998885 142.98098799999823
    vertex -48.50000000000048 30.100000000001117 142.9809879999982
  endloop
endfacet
facet normal 2.185751579730777e-15 -8.326672684688631e-16 1.0
  outer loop
    vertex -48.50000000000048 30.100000000001117 142.9809879999982
    vertex -47.00000000000047 -28.799999999998885 142.98098799999823
    vertex -48.385819298767416 29.525974851453483 142.9809879999982
  endloop
endfacet
facet normal 2.185751579730777e-15 -8.326672684688631e-16 1.0
  outer loop
    vertex -48.385819298767416 29.525974851453483 142.9809879999982
    vertex -47.00000000000047 -28.799999999998885 142.98098799999823
    vertex -48.060660171780306 29.039339828221273 142.9809879999982
  endloop
endfacet
facet normal 2.185751579730777e-15 -8.326672684688631e-16 1.0
  outer loop
    vertex -48.060660171780306 29.039339828221273 142.9809879999982
    vertex -47.00000000000047 -28.799999999998885 142.98098799999823
    vertex -47.5740251485481 28.714180701234188 142.9809879999982
  endloop
endfacet
facet normal 2.185751579730777e-15 -8.326672684688631e-16 1.0
  outer loop
    vertex -47.5740251485481 28.714180701234188 142.9809879999982
    vertex -47.00000000000047 -28.799999999998885 142.98098799999823
    vertex -47.0000000000005 28.600000000001074 142.9809879999982
  endloop
endfacet
facet normal 2.185751579730777e-15 -8.326672684688631e-16 1.0
  outer loop
    vertex -50.00000000000052 54.500000000001144 142.98098799999823
    vertex -48.50000000000048 30.100000000001117 142.9809879999982
    vertex -48.385819298767416 30.67402514854875 142.9809879999982
  endloop
endfacet
facet normal 2.185751579730777e-15 -8.326672684688631e-16 1.0
  outer loop
    vertex -50.00000000000052 54.500000000001144 142.98098799999823
    vertex -48.385819298767416 30.67402514854875 142.9809879999982
    vertex -48.060660171780306 31.16066017178092 142.9809879999982
  endloop
endfacet
facet normal 2.185751579730777e-15 -8.326672684688631e-16 1.0
  outer loop
    vertex -50.00000000000052 54.500000000001144 142.98098799999823
    vertex -48.060660171780306 31.16066017178092 142.9809879999982
    vertex -47.57402514854815 31.485819298768046 142.9809879999982
  endloop
endfacet
facet normal 2.185751579730777e-15 -8.326672684688631e-16 1.0
  outer loop
    vertex -50.00000000000052 54.500000000001144 142.98098799999823
    vertex -47.57402514854815 31.485819298768046 142.9809879999982
    vertex -47.00000000000052 31.60000000000106 142.9809879999982
  endloop
endfacet
facet normal 2.185751579730777e-15 -8.326672684688631e-16 1.0
  outer loop
    vertex 46.82571495268533 28.61015949770489 142.980987999998
    vertex -46.425974851452835 28.714180701234167 142.9809879999982
    vertex -47.0000000000005 28.600000000001074 142.9809879999982
  endloop
endfacet
facet normal 2.185751579730777e-15 -8.326672684688631e-16 1.0
  outer loop
    vertex -46.425974851452835 28.714180701234167 142.9809879999982
    vertex 46.82571495268533 28.61015949770489 142.980987999998
    vertex 46.26884433486787 28.790262853339456 142.980987999998
  endloop
endfacet
facet normal 2.185751579730777e-15 -8.326672684688631e-16 1.0
  outer loop
    vertex -46.425974851452835 28.714180701234167 142.9809879999982
    vertex 46.26884433486787 28.790262853339456 142.980987999998
    vertex -45.939339828220646 29.039339828221227 142.9809879999982
  endloop
endfacet
facet normal 2.185751579730777e-15 -8.326672684688631e-16 1.0
  outer loop
    vertex -45.939339828220646 29.039339828221227 142.9809879999982
    vertex 46.26884433486787 28.790262853339456 142.980987999998
    vertex 45.8232855391241 29.169761816756473 142.980987999998
  endloop
endfacet
facet normal 2.185751579730777e-15 -8.326672684688631e-16 1.0
  outer loop
    vertex -45.939339828220646 29.039339828221227 142.9809879999982
    vertex 45.8232855391241 29.169761816756473 142.980987999998
    vertex -45.61418070123356 29.52597485145344 142.9809879999982
  endloop
endfacet
facet normal 2.185751579730777e-15 -8.326672684688631e-16 1.0
  outer loop
    vertex -45.61418070123356 29.52597485145344 142.9809879999982
    vertex 45.8232855391241 29.169761816756473 142.980987999998
    vertex 45.55687085310547 29.69088111094237 142.980987999998
  endloop
endfacet
facet normal 2.185751579730777e-15 -8.326672684688631e-16 1.0
  outer loop
    vertex -45.61418070123356 29.52597485145344 142.9809879999982
    vertex 45.55687085310547 29.69088111094237 142.980987999998
    vertex -45.50000000000048 30.100000000001153 142.9809879999982
  endloop
endfacet
facet normal 2.185751579730777e-15 -8.326672684688631e-16 1.0
  outer loop
    vertex -45.50000000000048 30.100000000001153 142.9809879999982
    vertex 45.55687085310547 29.69088111094237 142.980987999998
    vertex 45.51015949770318 30.274285047315523 142.980987999998
  endloop
endfacet
facet normal 2.185751579730777e-15 -8.326672684688631e-16 1.0
  outer loop
    vertex -45.50000000000048 30.100000000001153 142.9809879999982
    vertex 45.51015949770318 30.274285047315523 142.980987999998
    vertex -45.61418070123356 30.674025148548708 142.9809879999982
  endloop
endfacet
facet normal 2.185751579730777e-15 -8.326672684688631e-16 1.0
  outer loop
    vertex -45.61418070123356 30.674025148548708 142.9809879999982
    vertex 45.51015949770318 30.274285047315523 142.980987999998
    vertex 45.69026285333772 30.831155665132982 142.980987999998
  endloop
endfacet
facet normal 2.185751579730777e-15 -8.326672684688631e-16 1.0
  outer loop
    vertex -45.61418070123356 30.674025148548708 142.9809879999982
    vertex 45.69026285333772 30.831155665132982 142.980987999998
    vertex -45.93933982822066 31.160660171780876 142.9809879999982
  endloop
endfacet
facet normal 2.185751579730777e-15 -8.326672684688631e-16 1.0
  outer loop
    vertex -45.93933982822066 31.160660171780876 142.9809879999982
    vertex 45.69026285333772 30.831155665132982 142.980987999998
    vertex 46.06976181675474 31.27671446087674 142.980987999998
  endloop
endfacet
facet normal 2.185751579730777e-15 -8.326672684688631e-16 1.0
  outer loop
    vertex -45.93933982822066 31.160660171780876 142.9809879999982
    vertex 46.06976181675474 31.27671446087674 142.980987999998
    vertex -46.425974851452864 31.485819298768014 142.9809879999982
  endloop
endfacet
facet normal 2.185751579730777e-15 -8.326672684688631e-16 1.0
  outer loop
    vertex -46.425974851452864 31.485819298768014 142.9809879999982
    vertex 46.06976181675474 31.27671446087674 142.980987999998
    vertex 46.590881110940636 31.543129146895343 142.980987999998
  endloop
endfacet
facet normal 2.185751579730777e-15 -8.326672684688631e-16 1.0
  outer loop
    vertex -46.425974851452864 31.485819298768014 142.9809879999982
    vertex 46.590881110940636 31.543129146895343 142.980987999998
    vertex -47.00000000000052 31.60000000000106 142.9809879999982
  endloop
endfacet
facet normal 2.185751579730777e-15 -8.326672684688631e-16 1.0
  outer loop
    vertex -47.00000000000052 31.60000000000106 142.9809879999982
    vertex 46.590881110940636 31.543129146895343 142.980987999998
    vertex 47.17428504731379 31.58984050229764 142.980987999998
  endloop
endfacet
facet normal 2.185751579730777e-15 -8.326672684688631e-16 1.0
  outer loop
    vertex 47.03664473948819 -31.7995523208825 142.980987999998
    vertex -46.425974851452715 -31.685819298765786 142.98098799999823
    vertex -47.00000000000035 -31.799999999998914 142.98098799999823
  endloop
endfacet
facet normal 2.185751579730777e-15 -8.326672684688631e-16 1.0
  outer loop
    vertex -46.425974851452715 -31.685819298765786 142.98098799999823
    vertex 47.03664473948819 -31.7995523208825 142.980987999998
    vertex 46.460001495620475 -31.69942903187865 142.98098799999804
  endloop
endfacet
facet normal 2.185751579730777e-15 -8.326672684688631e-16 1.0
  outer loop
    vertex -46.425974851452715 -31.685819298765786 142.98098799999823
    vertex 46.460001495620475 -31.69942903187865 142.98098799999804
    vertex 45.96556812894586 -31.38625535862688 142.98098799999804
  endloop
endfacet
facet normal 2.185751579730777e-15 -8.326672684688631e-16 1.0
  outer loop
    vertex -46.425974851452715 -31.685819298765786 142.98098799999823
    vertex 45.96556812894586 -31.38625535862688 142.98098799999804
    vertex -45.93933982822055 -31.36066017177867 142.9809879999982
  endloop
endfacet
facet normal 2.185751579730777e-15 -8.326672684688631e-16 1.0
  outer loop
    vertex -45.93933982822055 -31.36066017177867 142.9809879999982
    vertex 45.96556812894586 -31.38625535862688 142.98098799999804
    vertex 45.62861763749088 -30.907709153953306 142.98098799999804
  endloop
endfacet
facet normal 2.185751579730777e-15 -8.326672684688631e-16 1.0
  outer loop
    vertex -45.93933982822055 -31.36066017177867 142.9809879999982
    vertex 45.62861763749088 -30.907709153953306 142.98098799999804
    vertex -45.61418070123345 -30.87402514854648 142.9809879999982
  endloop
endfacet
facet normal 2.185751579730777e-15 -8.326672684688631e-16 1.0
  outer loop
    vertex -45.61418070123345 -30.87402514854648 142.9809879999982
    vertex 45.62861763749088 -30.907709153953306 142.98098799999804
    vertex 45.500447679115815 -30.336644739487348 142.98098799999804
  endloop
endfacet
facet normal 2.185751579730777e-15 -8.326672684688631e-16 1.0
  outer loop
    vertex -45.61418070123345 -30.87402514854648 142.9809879999982
    vertex 45.500447679115815 -30.336644739487348 142.98098799999804
    vertex -45.50000000000041 -30.299999999998846 142.9809879999982
  endloop
endfacet
facet normal 2.185751579730777e-15 -8.326672684688631e-16 1.0
  outer loop
    vertex -45.50000000000041 -30.299999999998846 142.9809879999982
    vertex 45.500447679115815 -30.336644739487348 142.98098799999804
    vertex 45.60057096811967 -29.76000149561965 142.98098799999804
  endloop
endfacet
facet normal 2.185751579730777e-15 -8.326672684688631e-16 1.0
  outer loop
    vertex -45.50000000000041 -30.299999999998846 142.9809879999982
    vertex 45.60057096811967 -29.76000149561965 142.98098799999804
    vertex -45.61418070123352 -29.725974851451213 142.98098799999823
  endloop
endfacet
facet normal 2.185751579730777e-15 -8.326672684688631e-16 1.0
  outer loop
    vertex -45.61418070123352 -29.725974851451213 142.98098799999823
    vertex 45.60057096811967 -29.76000149561965 142.98098799999804
    vertex 45.913744641371466 -29.265568128945006 142.98098799999804
  endloop
endfacet
facet normal 2.185751579730777e-15 -8.326672684688631e-16 1.0
  outer loop
    vertex -45.61418070123352 -29.725974851451213 142.98098799999823
    vertex 45.913744641371466 -29.265568128945006 142.98098799999804
    vertex -45.93933982822064 -29.239339828219048 142.98098799999823
  endloop
endfacet
facet normal 2.185751579730777e-15 -8.326672684688631e-16 1.0
  outer loop
    vertex -45.93933982822064 -29.239339828219048 142.98098799999823
    vertex 45.913744641371466 -29.265568128945006 142.98098799999804
    vertex 46.39229084604502 -28.928617637490074 142.98098799999804
  endloop
endfacet
facet normal 2.185751579730777e-15 -8.326672684688631e-16 1.0
  outer loop
    vertex -45.93933982822064 -29.239339828219048 142.98098799999823
    vertex 46.39229084604502 -28.928617637490074 142.98098799999804
    vertex -46.425974851452835 -28.91418070123193 142.98098799999823
  endloop
endfacet
facet normal 2.185751579730777e-15 -8.326672684688631e-16 1.0
  outer loop
    vertex -46.425974851452835 -28.91418070123193 142.98098799999823
    vertex 46.39229084604502 -28.928617637490074 142.98098799999804
    vertex 46.96335526051099 -28.800447679114992 142.980987999998
  endloop
endfacet
facet normal 2.185751579730777e-15 -8.326672684688631e-16 1.0
  outer loop
    vertex -46.425974851452835 -28.91418070123193 142.98098799999823
    vertex 46.96335526051099 -28.800447679114992 142.980987999998
    vertex -47.00000000000047 -28.799999999998885 142.98098799999823
  endloop
endfacet
facet normal -1.0 -1.276756478318938e-15 2.1857515797307758e-15
  outer loop
    vertex -50.000000000000526 54.500000000001144 139.98098799999823
    vertex -50.000000000000384 -54.69999999999884 142.98098799999815
    vertex -50.00000000000052 54.500000000001144 142.98098799999823
  endloop
endfacet
facet normal -1.0 -1.276756478318938e-15 2.1857515797307758e-15
  outer loop
    vertex -50.000000000000384 -54.69999999999884 142.98098799999815
    vertex -50.000000000000526 54.500000000001144 139.98098799999823
    vertex -50.00000000000039 -54.69999999999885 139.98098799999815
  endloop
endfacet
facet normal 1.0 1.276756478318938e-15 -2.1857515797307758e-15
  outer loop
    vertex 49.99999999999962 -54.69999999999875 139.98098799999795
    vertex 49.999999999999545 54.5000000000013 142.98098799999806
    vertex 49.99999999999968 -54.699999999998795 142.98098799999798
  endloop
endfacet
facet normal 1.0 1.276756478318938e-15 -2.1857515797307758e-15
  outer loop
    vertex 49.999999999999545 54.5000000000013 142.98098799999806
    vertex 49.99999999999962 -54.69999999999875 139.98098799999795
    vertex 49.99999999999949 54.50000000000128 139.98098799999804
  endloop
endfacet
facet normal -2.185751579730777e-15 8.326672684688631e-16 -1.0
  outer loop
    vertex -46.4259748514527 -31.685819298765747 139.98098799999823
    vertex 47.036644739488096 -31.799552320882476 139.980987999998
    vertex -47.000000000000334 -31.79999999999888 139.98098799999823
  endloop
endfacet
facet normal -2.185751579730777e-15 8.326672684688631e-16 -1.0
  outer loop
    vertex 47.036644739488096 -31.799552320882476 139.980987999998
    vertex -46.4259748514527 -31.685819298765747 139.98098799999823
    vertex 46.46000149562039 -31.699429031878637 139.98098799999804
  endloop
endfacet
facet normal -2.185751579730777e-15 8.326672684688631e-16 -1.0
  outer loop
    vertex 46.46000149562039 -31.699429031878637 139.98098799999804
    vertex -46.4259748514527 -31.685819298765747 139.98098799999823
    vertex 45.96556812894577 -31.386255358626855 139.98098799999804
  endloop
endfacet
facet normal -2.185751579730777e-15 8.326672684688631e-16 -1.0
  outer loop
    vertex 45.96556812894577 -31.386255358626855 139.98098799999804
    vertex -46.4259748514527 -31.685819298765747 139.98098799999823
    vertex -45.93933982822054 -31.36066017177865 139.9809879999982
  endloop
endfacet
facet normal -2.185751579730777e-15 8.326672684688631e-16 -1.0
  outer loop
    vertex 45.96556812894577 -31.386255358626855 139.98098799999804
    vertex -45.93933982822054 -31.36066017177865 139.9809879999982
    vertex 45.62861763749081 -30.907709153953277 139.98098799999804
  endloop
endfacet
facet normal -2.185751579730777e-15 8.326672684688631e-16 -1.0
  outer loop
    vertex 45.62861763749081 -30.907709153953277 139.98098799999804
    vertex -45.93933982822054 -31.36066017177865 139.9809879999982
    vertex -45.61418070123347 -30.87402514854645 139.9809879999982
  endloop
endfacet
facet normal -2.185751579730777e-15 8.326672684688631e-16 -1.0
  outer loop
    vertex 45.62861763749081 -30.907709153953277 139.98098799999804
    vertex -45.61418070123347 -30.87402514854645 139.9809879999982
    vertex 45.500447679115744 -30.33664473948732 139.98098799999804
  endloop
endfacet
facet normal -2.185751579730777e-15 8.326672684688631e-16 -1.0
  outer loop
    vertex 45.500447679115744 -30.33664473948732 139.98098799999804
    vertex -45.61418070123347 -30.87402514854645 139.9809879999982
    vertex -45.50000000000041 -30.299999999998818 139.9809879999982
  endloop
endfacet
facet normal -2.185751579730777e-15 8.326672684688631e-16 -1.0
  outer loop
    vertex 45.500447679115744 -30.33664473948732 139.98098799999804
    vertex -45.50000000000041 -30.299999999998818 139.9809879999982
    vertex 45.60057096811958 -29.760001495619623 139.98098799999804
  endloop
endfacet
facet normal -2.185751579730777e-15 8.326672684688631e-16 -1.0
  outer loop
    vertex 45.60057096811958 -29.760001495619623 139.98098799999804
    vertex -45.50000000000041 -30.299999999998818 139.9809879999982
    vertex -45.6141807012335 -29.725974851451184 139.98098799999823
  endloop
endfacet
facet normal -2.185751579730777e-15 8.326672684688631e-16 -1.0
  outer loop
    vertex 45.60057096811958 -29.760001495619623 139.98098799999804
    vertex -45.6141807012335 -29.725974851451184 139.98098799999823
    vertex 45.91374464137137 -29.265568128945006 139.98098799999804
  endloop
endfacet
facet normal -2.185751579730777e-15 8.326672684688631e-16 -1.0
  outer loop
    vertex 45.91374464137137 -29.265568128945006 139.98098799999804
    vertex -45.6141807012335 -29.725974851451184 139.98098799999823
    vertex -45.93933982822063 -29.239339828219048 139.98098799999823
  endloop
endfacet
facet normal -2.185751579730777e-15 8.326672684688631e-16 -1.0
  outer loop
    vertex 45.91374464137137 -29.265568128945006 139.98098799999804
    vertex -45.93933982822063 -29.239339828219048 139.98098799999823
    vertex 46.39229084604495 -28.928617637490074 139.98098799999804
  endloop
endfacet
facet normal -2.185751579730777e-15 8.326672684688631e-16 -1.0
  outer loop
    vertex 46.39229084604495 -28.928617637490074 139.98098799999804
    vertex -45.93933982822063 -29.239339828219048 139.98098799999823
    vertex -46.42597485145282 -28.91418070123193 139.98098799999823
  endloop
endfacet
facet normal -2.185751579730777e-15 8.326672684688631e-16 -1.0
  outer loop
    vertex 46.39229084604495 -28.928617637490074 139.98098799999804
    vertex -46.42597485145282 -28.91418070123193 139.98098799999823
    vertex 46.963355260510895 -28.800447679114992 139.980987999998
  endloop
endfacet
facet normal -2.185751579730777e-15 8.326672684688631e-16 -1.0
  outer loop
    vertex 46.963355260510895 -28.800447679114992 139.980987999998
    vertex -46.42597485145282 -28.91418070123193 139.98098799999823
    vertex -47.000000000000455 -28.799999999998885 139.98098799999823
  endloop
endfacet
facet normal -2.185751579730777e-15 8.326672684688631e-16 -1.0
  outer loop
    vertex -46.425974851452835 28.714180701234167 139.98098799999823
    vertex 46.82571495268532 28.61015949770489 139.980987999998
    vertex -47.0000000000005 28.600000000001074 139.98098799999823
  endloop
endfacet
facet normal -2.185751579730777e-15 8.326672684688631e-16 -1.0
  outer loop
    vertex 46.82571495268532 28.61015949770489 139.980987999998
    vertex -46.425974851452835 28.714180701234167 139.98098799999823
    vertex 46.26884433486786 28.790262853339456 139.980987999998
  endloop
endfacet
facet normal -2.185751579730777e-15 8.326672684688631e-16 -1.0
  outer loop
    vertex 46.26884433486786 28.790262853339456 139.980987999998
    vertex -46.425974851452835 28.714180701234167 139.98098799999823
    vertex -45.939339828220646 29.039339828221227 139.98098799999823
  endloop
endfacet
facet normal -2.185751579730777e-15 8.326672684688631e-16 -1.0
  outer loop
    vertex 46.26884433486786 28.790262853339456 139.980987999998
    vertex -45.939339828220646 29.039339828221227 139.98098799999823
    vertex 45.82328553912403 29.169761816756473 139.980987999998
  endloop
endfacet
facet normal -2.185751579730777e-15 8.326672684688631e-16 -1.0
  outer loop
    vertex 45.82328553912403 29.169761816756473 139.980987999998
    vertex -45.939339828220646 29.039339828221227 139.98098799999823
    vertex -45.614180701233536 29.52597485145344 139.98098799999823
  endloop
endfacet
facet normal -2.185751579730777e-15 8.326672684688631e-16 -1.0
  outer loop
    vertex 45.82328553912403 29.169761816756473 139.980987999998
    vertex -45.614180701233536 29.52597485145344 139.98098799999823
    vertex 45.55687085310541 29.69088111094237 139.980987999998
  endloop
endfacet
facet normal -2.185751579730777e-15 8.326672684688631e-16 -1.0
  outer loop
    vertex 45.55687085310541 29.69088111094237 139.980987999998
    vertex -45.614180701233536 29.52597485145344 139.98098799999823
    vertex -45.50000000000047 30.100000000001153 139.98098799999823
  endloop
endfacet
facet normal -2.185751579730777e-15 8.326672684688631e-16 -1.0
  outer loop
    vertex 45.55687085310541 29.69088111094237 139.980987999998
    vertex -45.50000000000047 30.100000000001153 139.98098799999823
    vertex 45.51015949770311 30.274285047315523 139.980987999998
  endloop
endfacet
facet normal -2.185751579730777e-15 8.326672684688631e-16 -1.0
  outer loop
    vertex 45.51015949770311 30.274285047315523 139.980987999998
    vertex -45.50000000000047 30.100000000001153 139.98098799999823
    vertex -45.61418070123355 30.674025148548708 139.98098799999823
  endloop
endfacet
facet normal -2.185751579730777e-15 8.326672684688631e-16 -1.0
  outer loop
    vertex 45.51015949770311 30.274285047315523 139.980987999998
    vertex -45.61418070123355 30.674025148548708 139.98098799999823
    vertex 45.69026285333766 30.831155665132982 139.980987999998
  endloop
endfacet
facet normal -2.185751579730777e-15 8.326672684688631e-16 -1.0
  outer loop
    vertex 45.69026285333766 30.831155665132982 139.980987999998
    vertex -45.61418070123355 30.674025148548708 139.98098799999823
    vertex -45.939339828220675 31.160660171780876 139.98098799999823
  endloop
endfacet
facet normal -2.185751579730777e-15 8.326672684688631e-16 -1.0
  outer loop
    vertex 45.69026285333766 30.831155665132982 139.980987999998
    vertex -45.939339828220675 31.160660171780876 139.98098799999823
    vertex 46.06976181675465 31.27671446087674 139.980987999998
  endloop
endfacet
facet normal -2.185751579730777e-15 8.326672684688631e-16 -1.0
  outer loop
    vertex 46.06976181675465 31.27671446087674 139.980987999998
    vertex -45.939339828220675 31.160660171780876 139.98098799999823
    vertex -46.425974851452864 31.485819298768014 139.98098799999823
  endloop
endfacet
facet normal -2.185751579730777e-15 8.326672684688631e-16 -1.0
  outer loop
    vertex 46.06976181675465 31.27671446087674 139.980987999998
    vertex -46.425974851452864 31.485819298768014 139.98098799999823
    vertex 46.59088111094055 31.543129146895343 139.980987999998
  endloop
endfacet
facet normal -2.185751579730777e-15 8.326672684688631e-16 -1.0
  outer loop
    vertex 46.59088111094055 31.543129146895343 139.980987999998
    vertex -46.425974851452864 31.485819298768014 139.98098799999823
    vertex -47.0000000000005 31.60000000000106 139.98098799999823
  endloop
endfacet
facet normal -2.185751579730777e-15 8.326672684688631e-16 -1.0
  outer loop
    vertex 46.59088111094055 31.543129146895343 139.980987999998
    vertex -47.0000000000005 31.60000000000106 139.98098799999823
    vertex 47.174285047313724 31.58984050229764 139.980987999998
  endloop
endfacet
facet normal -2.185751579730777e-15 8.326672684688631e-16 -1.0
  outer loop
    vertex -50.00000000000039 -54.69999999999885 139.98098799999815
    vertex -47.57402514854797 -31.68581929876579 139.98098799999823
    vertex -47.000000000000334 -31.79999999999888 139.98098799999823
  endloop
endfacet
facet normal -2.185751579730777e-15 8.326672684688631e-16 -1.0
  outer loop
    vertex -47.57402514854797 -31.68581929876579 139.98098799999823
    vertex -50.00000000000039 -54.69999999999885 139.98098799999815
    vertex -48.060660171780164 -31.360660171778708 139.98098799999823
  endloop
endfacet
facet normal -2.185751579730777e-15 8.326672684688631e-16 -1.0
  outer loop
    vertex -48.060660171780164 -31.360660171778708 139.98098799999823
    vertex -50.00000000000039 -54.69999999999885 139.98098799999815
    vertex -48.385819298767316 -30.87402514854654 139.98098799999818
  endloop
endfacet
facet normal -2.185751579730777e-15 8.326672684688631e-16 -1.0
  outer loop
    vertex -48.385819298767316 -30.87402514854654 139.98098799999818
    vertex -50.00000000000039 -54.69999999999885 139.98098799999815
    vertex -48.500000000000405 -30.299999999998906 139.9809879999982
  endloop
endfacet
facet normal -2.185751579730777e-15 8.326672684688631e-16 -1.0
  outer loop
    vertex -48.500000000000405 -30.299999999998906 139.9809879999982
    vertex -50.00000000000039 -54.69999999999885 139.98098799999815
    vertex -50.000000000000526 54.500000000001144 139.98098799999823
  endloop
endfacet
facet normal -2.185751579730777e-15 8.326672684688631e-16 -1.0
  outer loop
    vertex -48.500000000000405 -30.299999999998906 139.9809879999982
    vertex -50.000000000000526 54.500000000001144 139.98098799999823
    vertex -48.38581929876735 -29.725974851451273 139.9809879999982
  endloop
endfacet
facet normal -2.185751579730777e-15 8.326672684688631e-16 -1.0
  outer loop
    vertex -48.38581929876735 -29.725974851451273 139.9809879999982
    vertex -50.000000000000526 54.500000000001144 139.98098799999823
    vertex -48.060660171780256 -29.239339828219112 139.9809879999982
  endloop
endfacet
facet normal -2.185751579730777e-15 8.326672684688631e-16 -1.0
  outer loop
    vertex -48.060660171780256 -29.239339828219112 139.9809879999982
    vertex -50.000000000000526 54.500000000001144 139.98098799999823
    vertex -47.57402514854809 -28.91418070123196 139.98098799999818
  endloop
endfacet
facet normal -2.185751579730777e-15 8.326672684688631e-16 -1.0
  outer loop
    vertex -47.57402514854809 -28.91418070123196 139.98098799999818
    vertex -50.000000000000526 54.500000000001144 139.98098799999823
    vertex -47.000000000000455 -28.799999999998885 139.98098799999823
  endloop
endfacet
facet normal -2.185751579730777e-15 8.326672684688631e-16 -1.0
  outer loop
    vertex -47.000000000000455 -28.799999999998885 139.98098799999823
    vertex -50.000000000000526 54.500000000001144 139.98098799999823
    vertex -48.50000000000046 30.100000000001117 139.98098799999823
  endloop
endfacet
facet normal -2.185751579730777e-15 8.326672684688631e-16 -1.0
  outer loop
    vertex -47.000000000000455 -28.799999999998885 139.98098799999823
    vertex -48.50000000000046 30.100000000001117 139.98098799999823
    vertex -48.385819298767395 29.525974851453483 139.98098799999823
  endloop
endfacet
facet normal -2.185751579730777e-15 8.326672684688631e-16 -1.0
  outer loop
    vertex -47.000000000000455 -28.799999999998885 139.98098799999823
    vertex -48.385819298767395 29.525974851453483 139.98098799999823
    vertex -48.06066017178029 29.039339828221273 139.98098799999823
  endloop
endfacet
facet normal -2.185751579730777e-15 8.326672684688631e-16 -1.0
  outer loop
    vertex -47.000000000000455 -28.799999999998885 139.98098799999823
    vertex -48.06066017178029 29.039339828221273 139.98098799999823
    vertex -47.5740251485481 28.714180701234188 139.98098799999823
  endloop
endfacet
facet normal -2.185751579730777e-15 8.326672684688631e-16 -1.0
  outer loop
    vertex -47.000000000000455 -28.799999999998885 139.98098799999823
    vertex -47.5740251485481 28.714180701234188 139.98098799999823
    vertex -47.0000000000005 28.600000000001074 139.98098799999823
  endloop
endfacet
facet normal -2.185751579730777e-15 8.326672684688631e-16 -1.0
  outer loop
    vertex -48.50000000000046 30.100000000001117 139.98098799999823
    vertex -50.000000000000526 54.500000000001144 139.98098799999823
    vertex -48.38581929876741 30.67402514854875 139.98098799999823
  endloop
endfacet
facet normal -2.185751579730777e-15 8.326672684688631e-16 -1.0
  outer loop
    vertex -48.38581929876741 30.67402514854875 139.98098799999823
    vertex -50.000000000000526 54.500000000001144 139.98098799999823
    vertex -48.06066017178033 31.16066017178092 139.98098799999823
  endloop
endfacet
facet normal -2.185751579730777e-15 8.326672684688631e-16 -1.0
  outer loop
    vertex -48.06066017178033 31.16066017178092 139.98098799999823
    vertex -50.000000000000526 54.500000000001144 139.98098799999823
    vertex -47.57402514854813 31.485819298768046 139.98098799999823
  endloop
endfacet
facet normal -2.185751579730777e-15 8.326672684688631e-16 -1.0
  outer loop
    vertex -47.57402514854813 31.485819298768046 139.98098799999823
    vertex -50.000000000000526 54.500000000001144 139.98098799999823
    vertex -47.0000000000005 31.60000000000106 139.98098799999823
  endloop
endfacet
facet normal -2.185751579730777e-15 8.326672684688631e-16 -1.0
  outer loop
    vertex 49.99999999999962 -54.69999999999875 139.98098799999795
    vertex 48.49955232088325 -30.263355260510128 139.980987999998
    vertex 49.99999999999949 54.50000000000128 139.98098799999804
  endloop
endfacet
facet normal -2.185751579730777e-15 8.326672684688631e-16 -1.0
  outer loop
    vertex 48.49955232088325 -30.263355260510128 139.980987999998
    vertex 49.99999999999962 -54.69999999999875 139.98098799999795
    vertex 48.399429031879414 -30.839998504377835 139.980987999998
  endloop
endfacet
facet normal -2.185751579730777e-15 8.326672684688631e-16 -1.0
  outer loop
    vertex 48.399429031879414 -30.839998504377835 139.980987999998
    vertex 49.99999999999962 -54.69999999999875 139.98098799999795
    vertex 48.08625535862762 -31.334431871052484 139.980987999998
  endloop
endfacet
facet normal -2.185751579730777e-15 8.326672684688631e-16 -1.0
  outer loop
    vertex 48.08625535862762 -31.334431871052484 139.980987999998
    vertex 49.99999999999962 -54.69999999999875 139.98098799999795
    vertex 47.60770915395404 -31.671382362507398 139.980987999998
  endloop
endfacet
facet normal -2.185751579730777e-15 8.326672684688631e-16 -1.0
  outer loop
    vertex 47.60770915395404 -31.671382362507398 139.980987999998
    vertex 49.99999999999962 -54.69999999999875 139.98098799999795
    vertex -50.00000000000039 -54.69999999999885 139.98098799999815
  endloop
endfacet
facet normal -2.185751579730777e-15 8.326672684688631e-16 -1.0
  outer loop
    vertex 47.60770915395404 -31.671382362507398 139.980987999998
    vertex -50.00000000000039 -54.69999999999885 139.98098799999815
    vertex 47.036644739488096 -31.799552320882476 139.980987999998
  endloop
endfacet
facet normal -2.185751579730777e-15 8.326672684688631e-16 -1.0
  outer loop
    vertex 47.036644739488096 -31.799552320882476 139.980987999998
    vertex -50.00000000000039 -54.69999999999885 139.98098799999815
    vertex -47.000000000000334 -31.79999999999888 139.98098799999823
  endloop
endfacet
facet normal -2.185751579730777e-15 8.326672684688631e-16 -1.0
  outer loop
    vertex 49.99999999999949 54.50000000000128 139.98098799999804
    vertex 48.49955232088325 -30.263355260510128 139.980987999998
    vertex 48.37138236250818 -29.69229084604423 139.980987999998
  endloop
endfacet
facet normal -2.185751579730777e-15 8.326672684688631e-16 -1.0
  outer loop
    vertex 49.99999999999949 54.50000000000128 139.98098799999804
    vertex 48.37138236250818 -29.69229084604423 139.980987999998
    vertex 48.03443187105322 -29.213744641370656 139.980987999998
  endloop
endfacet
facet normal -2.185751579730777e-15 8.326672684688631e-16 -1.0
  outer loop
    vertex 49.99999999999949 54.50000000000128 139.98098799999804
    vertex 48.03443187105322 -29.213744641370656 139.980987999998
    vertex 47.5399985043786 -28.900570968118835 139.980987999998
  endloop
endfacet
facet normal -2.185751579730777e-15 8.326672684688631e-16 -1.0
  outer loop
    vertex 49.99999999999949 54.50000000000128 139.98098799999804
    vertex 47.5399985043786 -28.900570968118835 139.980987999998
    vertex 46.963355260510895 -28.800447679114992 139.980987999998
  endloop
endfacet
facet normal -2.185751579730777e-15 8.326672684688631e-16 -1.0
  outer loop
    vertex 49.99999999999949 54.50000000000128 139.98098799999804
    vertex 46.963355260510895 -28.800447679114992 139.980987999998
    vertex 48.48984050229586 29.925714952687027 139.98098799999806
  endloop
endfacet
facet normal -2.185751579730777e-15 8.326672684688631e-16 -1.0
  outer loop
    vertex 48.48984050229586 29.925714952687027 139.98098799999806
    vertex 46.963355260510895 -28.800447679114992 139.980987999998
    vertex 48.30973714666131 29.36884433486957 139.98098799999806
  endloop
endfacet
facet normal -2.185751579730777e-15 8.326672684688631e-16 -1.0
  outer loop
    vertex 48.30973714666131 29.36884433486957 139.98098799999806
    vertex 46.963355260510895 -28.800447679114992 139.980987999998
    vertex 47.93023818324428 28.92328553912581 139.98098799999806
  endloop
endfacet
facet normal -2.185751579730777e-15 8.326672684688631e-16 -1.0
  outer loop
    vertex 47.93023818324428 28.92328553912581 139.98098799999806
    vertex 46.963355260510895 -28.800447679114992 139.980987999998
    vertex -47.000000000000455 -28.799999999998885 139.98098799999823
  endloop
endfacet
facet normal -2.185751579730777e-15 8.326672684688631e-16 -1.0
  outer loop
    vertex 47.93023818324428 28.92328553912581 139.98098799999806
    vertex -47.000000000000455 -28.799999999998885 139.98098799999823
    vertex 47.40911888905847 28.656870853107186 139.98098799999806
  endloop
endfacet
facet normal -2.185751579730777e-15 8.326672684688631e-16 -1.0
  outer loop
    vertex 47.40911888905847 28.656870853107186 139.98098799999806
    vertex -47.000000000000455 -28.799999999998885 139.98098799999823
    vertex 46.82571495268532 28.61015949770489 139.980987999998
  endloop
endfacet
facet normal -2.185751579730777e-15 8.326672684688631e-16 -1.0
  outer loop
    vertex 46.82571495268532 28.61015949770489 139.980987999998
    vertex -47.000000000000455 -28.799999999998885 139.98098799999823
    vertex -47.0000000000005 28.600000000001074 139.98098799999823
  endloop
endfacet
facet normal -2.185751579730777e-15 8.326672684688631e-16 -1.0
  outer loop
    vertex 49.99999999999949 54.50000000000128 139.98098799999804
    vertex 48.48984050229586 29.925714952687027 139.98098799999806
    vertex 48.44312914689356 30.50911888906018 139.98098799999806
  endloop
endfacet
facet normal -2.185751579730777e-15 8.326672684688631e-16 -1.0
  outer loop
    vertex 49.99999999999949 54.50000000000128 139.98098799999804
    vertex 48.44312914689356 30.50911888906018 139.98098799999806
    vertex 48.17671446087494 31.03023818324608 139.98098799999806
  endloop
endfacet
facet normal -2.185751579730777e-15 8.326672684688631e-16 -1.0
  outer loop
    vertex 49.99999999999949 54.50000000000128 139.98098799999804
    vertex 48.17671446087494 31.03023818324608 139.98098799999806
    vertex 47.731155665131176 31.409737146663094 139.980987999998
  endloop
endfacet
facet normal -2.185751579730777e-15 8.326672684688631e-16 -1.0
  outer loop
    vertex 49.99999999999949 54.50000000000128 139.98098799999804
    vertex 47.731155665131176 31.409737146663094 139.980987999998
    vertex 47.174285047313724 31.58984050229764 139.980987999998
  endloop
endfacet
facet normal -2.185751579730777e-15 8.326672684688631e-16 -1.0
  outer loop
    vertex 49.99999999999949 54.50000000000128 139.98098799999804
    vertex 47.174285047313724 31.58984050229764 139.980987999998
    vertex -47.0000000000005 31.60000000000106 139.98098799999823
  endloop
endfacet
facet normal -2.185751579730777e-15 8.326672684688631e-16 -1.0
  outer loop
    vertex 49.99999999999949 54.50000000000128 139.98098799999804
    vertex -47.0000000000005 31.60000000000106 139.98098799999823
    vertex -50.000000000000526 54.500000000001144 139.98098799999823
  endloop
endfacet
facet normal -1.2767564783189361e-15 1.0 8.326672684688658e-16
  outer loop
    vertex 49.999999999999545 54.5000000000013 142.98098799999806
    vertex -50.000000000000526 54.500000000001144 139.98098799999823
    vertex -50.00000000000052 54.500000000001144 142.98098799999823
  endloop
endfacet
facet normal -1.2767564783189361e-15 1.0 8.326672684688658e-16
  outer loop
    vertex -50.000000000000526 54.500000000001144 139.98098799999823
    vertex 49.999999999999545 54.5000000000013 142.98098799999806
    vertex 49.99999999999949 54.50000000000128 139.98098799999804
  endloop
endfacet
facet normal 1.2767564783189361e-15 -1.0 -8.326672684688658e-16
  outer loop
    vertex 49.99999999999962 -54.69999999999875 139.98098799999795
    vertex -50.000000000000384 -54.69999999999884 142.98098799999815
    vertex -50.00000000000039 -54.69999999999885 139.98098799999815
  endloop
endfacet
facet normal 1.2767564783189361e-15 -1.0 -8.326672684688658e-16
  outer loop
    vertex -50.000000000000384 -54.69999999999884 142.98098799999815
    vertex 49.99999999999962 -54.69999999999875 139.98098799999795
    vertex 49.99999999999968 -54.699999999998795 142.98098799999798
  endloop
endfacet
facet normal -0.817648973610637 -0.5757170797826585 8.902916654773721e-15
  outer loop
    vertex 48.03443187105322 -29.213744641370656 139.980987999998
    vertex 48.37138236250824 -29.69229084604423 142.98098799999798
    vertex 48.034431871053314 -29.213744641370656 142.98098799999798
  endloop
endfacet
facet normal -0.817648973610637 -0.5757170797826585 8.902916654773721e-15
  outer loop
    vertex 48.37138236250824 -29.69229084604423 142.98098799999798
    vertex 48.03443187105322 -29.213744641370656 139.980987999998
    vertex 48.37138236250818 -29.69229084604423 139.980987999998
  endloop
endfacet
facet normal -0.5350917633353034 -0.8447939422194715 8.225222476999296e-15
  outer loop
    vertex 48.03443187105322 -29.213744641370656 139.980987999998
    vertex 47.539998504378694 -28.900570968118835 142.980987999998
    vertex 47.5399985043786 -28.900570968118835 139.980987999998
  endloop
endfacet
facet normal -0.5350917633353034 -0.8447939422194715 8.225222476999296e-15
  outer loop
    vertex 47.539998504378694 -28.900570968118835 142.980987999998
    vertex 48.03443187105322 -29.213744641370656 139.980987999998
    vertex 48.034431871053314 -29.213744641370656 142.98098799999798
  endloop
endfacet
facet normal -0.1710716827110856 -0.9852585850295331 6.295312738929207e-15
  outer loop
    vertex 47.5399985043786 -28.900570968118835 139.980987999998
    vertex 46.96335526051099 -28.800447679114992 142.980987999998
    vertex 46.963355260510895 -28.800447679114992 139.980987999998
  endloop
endfacet
facet normal -0.1710716827110856 -0.9852585850295331 6.295312738929207e-15
  outer loop
    vertex 46.96335526051099 -28.800447679114992 142.980987999998
    vertex 47.5399985043786 -28.900570968118835 139.980987999998
    vertex 47.539998504378694 -28.900570968118835 142.980987999998
  endloop
endfacet
facet normal 0.21899251083725468 -0.9757265396601627 3.4069987035090487e-15
  outer loop
    vertex 46.963355260510895 -28.800447679114992 139.980987999998
    vertex 46.39229084604502 -28.928617637490074 142.98098799999804
    vertex 46.39229084604495 -28.928617637490074 139.98098799999804
  endloop
endfacet
facet normal 0.21899251083725468 -0.9757265396601627 3.4069987035090487e-15
  outer loop
    vertex 46.39229084604502 -28.928617637490074 142.98098799999804
    vertex 46.963355260510895 -28.800447679114992 139.980987999998
    vertex 46.96335526051099 -28.800447679114992 142.980987999998
  endloop
endfacet
facet normal 0.5757170797826456 -0.817648973610646 5.245925019719729e-29
  outer loop
    vertex 46.39229084604495 -28.928617637490074 139.98098799999804
    vertex 45.913744641371466 -29.265568128945006 142.98098799999804
    vertex 45.91374464137137 -29.265568128945006 139.98098799999804
  endloop
endfacet
facet normal 0.5757170797826456 -0.817648973610646 5.245925019719729e-29
  outer loop
    vertex 45.913744641371466 -29.265568128945006 142.98098799999804
    vertex 46.39229084604495 -28.928617637490074 139.98098799999804
    vertex 46.39229084604502 -28.928617637490074 142.98098799999804
  endloop
endfacet
facet normal 0.8447939422194627 -0.535091763335317 -3.406998703508991e-15
  outer loop
    vertex 45.60057096811958 -29.760001495619623 139.98098799999804
    vertex 45.913744641371466 -29.265568128945006 142.98098799999804
    vertex 45.60057096811967 -29.76000149561965 142.98098799999804
  endloop
endfacet
facet normal 0.8447939422194627 -0.535091763335317 -3.406998703508991e-15
  outer loop
    vertex 45.913744641371466 -29.265568128945006 142.98098799999804
    vertex 45.60057096811958 -29.760001495619623 139.98098799999804
    vertex 45.91374464137137 -29.265568128945006 139.98098799999804
  endloop
endfacet
facet normal 0.9852585850295358 -0.17107168271107015 -6.295312738929195e-15
  outer loop
    vertex 45.500447679115744 -30.33664473948732 139.98098799999804
    vertex 45.60057096811967 -29.76000149561965 142.98098799999804
    vertex 45.500447679115815 -30.336644739487348 142.98098799999804
  endloop
endfacet
facet normal 0.9852585850295358 -0.17107168271107015 -6.295312738929195e-15
  outer loop
    vertex 45.60057096811967 -29.76000149561965 142.98098799999804
    vertex 45.500447679115744 -30.33664473948732 139.98098799999804
    vertex 45.60057096811958 -29.760001495619623 139.98098799999804
  endloop
endfacet
facet normal 0.9757265396601676 0.21899251083723223 -8.225222476999246e-15
  outer loop
    vertex 45.62861763749081 -30.907709153953277 139.98098799999804
    vertex 45.500447679115815 -30.336644739487348 142.98098799999804
    vertex 45.62861763749088 -30.907709153953306 142.98098799999804
  endloop
endfacet
facet normal 0.9757265396601676 0.21899251083723223 -8.225222476999246e-15
  outer loop
    vertex 45.500447679115815 -30.336644739487348 142.98098799999804
    vertex 45.62861763749081 -30.907709153953277 139.98098799999804
    vertex 45.500447679115744 -30.33664473948732 139.98098799999804
  endloop
endfacet
facet normal 0.817648973610637 0.5757170797826585 -8.902916654773721e-15
  outer loop
    vertex 45.96556812894577 -31.386255358626855 139.98098799999804
    vertex 45.62861763749088 -30.907709153953306 142.98098799999804
    vertex 45.96556812894586 -31.38625535862688 142.98098799999804
  endloop
endfacet
facet normal 0.817648973610637 0.5757170797826585 -8.902916654773721e-15
  outer loop
    vertex 45.62861763749088 -30.907709153953306 142.98098799999804
    vertex 45.96556812894577 -31.386255358626855 139.98098799999804
    vertex 45.62861763749081 -30.907709153953277 139.98098799999804
  endloop
endfacet
facet normal 0.5350917633353034 0.8447939422194715 -8.225222476999296e-15
  outer loop
    vertex 45.96556812894586 -31.38625535862688 142.98098799999804
    vertex 46.46000149562039 -31.699429031878637 139.98098799999804
    vertex 45.96556812894577 -31.386255358626855 139.98098799999804
  endloop
endfacet
facet normal 0.5350917633353034 0.8447939422194715 -8.225222476999296e-15
  outer loop
    vertex 46.46000149562039 -31.699429031878637 139.98098799999804
    vertex 45.96556812894586 -31.38625535862688 142.98098799999804
    vertex 46.460001495620475 -31.69942903187865 142.98098799999804
  endloop
endfacet
facet normal 0.1710716827110856 0.9852585850295331 -6.295312738929207e-15
  outer loop
    vertex 46.460001495620475 -31.69942903187865 142.98098799999804
    vertex 47.036644739488096 -31.799552320882476 139.980987999998
    vertex 46.46000149562039 -31.699429031878637 139.98098799999804
  endloop
endfacet
facet normal 0.1710716827110856 0.9852585850295331 -6.295312738929207e-15
  outer loop
    vertex 47.036644739488096 -31.799552320882476 139.980987999998
    vertex 46.460001495620475 -31.69942903187865 142.98098799999804
    vertex 47.03664473948819 -31.7995523208825 142.980987999998
  endloop
endfacet
facet normal -0.21899251083725468 0.9757265396601627 -3.4069987035090487e-15
  outer loop
    vertex 47.03664473948819 -31.7995523208825 142.980987999998
    vertex 47.60770915395404 -31.671382362507398 139.980987999998
    vertex 47.036644739488096 -31.799552320882476 139.980987999998
  endloop
endfacet
facet normal -0.21899251083725468 0.9757265396601627 -3.4069987035090487e-15
  outer loop
    vertex 47.60770915395404 -31.671382362507398 139.980987999998
    vertex 47.03664473948819 -31.7995523208825 142.980987999998
    vertex 47.60770915395411 -31.671382362507412 142.980987999998
  endloop
endfacet
facet normal -0.5757170797826456 0.817648973610646 -5.245925019719729e-29
  outer loop
    vertex 47.60770915395411 -31.671382362507412 142.980987999998
    vertex 48.08625535862762 -31.334431871052484 139.980987999998
    vertex 47.60770915395404 -31.671382362507398 139.980987999998
  endloop
endfacet
facet normal -0.5757170797826456 0.817648973610646 -5.245925019719729e-29
  outer loop
    vertex 48.08625535862762 -31.334431871052484 139.980987999998
    vertex 47.60770915395411 -31.671382362507412 142.980987999998
    vertex 48.08625535862771 -31.3344318710525 142.980987999998
  endloop
endfacet
facet normal -0.8447939422194627 0.535091763335317 3.406998703508991e-15
  outer loop
    vertex 48.39942903187951 -30.839998504377867 142.98098799999798
    vertex 48.08625535862762 -31.334431871052484 139.980987999998
    vertex 48.08625535862771 -31.3344318710525 142.980987999998
  endloop
endfacet
facet normal -0.8447939422194627 0.535091763335317 3.406998703508991e-15
  outer loop
    vertex 48.08625535862762 -31.334431871052484 139.980987999998
    vertex 48.39942903187951 -30.839998504377867 142.98098799999798
    vertex 48.399429031879414 -30.839998504377835 139.980987999998
  endloop
endfacet
facet normal -0.9852585850295358 0.17107168271107015 6.295312738929195e-15
  outer loop
    vertex 48.49955232088325 -30.263355260510128 139.980987999998
    vertex 48.39942903187951 -30.839998504377867 142.98098799999798
    vertex 48.49955232088332 -30.26335526051017 142.98098799999798
  endloop
endfacet
facet normal -0.9852585850295358 0.17107168271107015 6.295312738929195e-15
  outer loop
    vertex 48.39942903187951 -30.839998504377867 142.98098799999798
    vertex 48.49955232088325 -30.263355260510128 139.980987999998
    vertex 48.399429031879414 -30.839998504377835 139.980987999998
  endloop
endfacet
facet normal -0.9757265396601676 -0.21899251083723223 8.225222476999246e-15
  outer loop
    vertex 48.37138236250818 -29.69229084604423 139.980987999998
    vertex 48.49955232088332 -30.26335526051017 142.98098799999798
    vertex 48.37138236250824 -29.69229084604423 142.98098799999798
  endloop
endfacet
facet normal -0.9757265396601676 -0.21899251083723223 8.225222476999246e-15
  outer loop
    vertex 48.49955232088332 -30.26335526051017 142.98098799999798
    vertex 48.37138236250818 -29.69229084604423 139.980987999998
    vertex 48.49955232088325 -30.263355260510128 139.980987999998
  endloop
endfacet
facet normal 0.07981150289699623 -0.9968099738693041 0.0
  outer loop
    vertex 47.174285047313724 31.58984050229764 139.980987999998
    vertex 46.590881110940636 31.543129146895343 142.980987999998
    vertex 46.59088111094055 31.543129146895343 139.980987999998
  endloop
endfacet
facet normal 0.07981150289699623 -0.9968099738693041 0.0
  outer loop
    vertex 46.590881110940636 31.543129146895343 142.980987999998
    vertex 47.174285047313724 31.58984050229764 139.980987999998
    vertex 47.17428504731379 31.58984050229764 142.980987999998
  endloop
endfacet
facet normal 0.4551988762015562 -0.8903897927901242 3.944304526105059e-31
  outer loop
    vertex 46.59088111094055 31.543129146895343 139.980987999998
    vertex 46.06976181675474 31.27671446087674 142.980987999998
    vertex 46.06976181675465 31.27671446087674 139.980987999998
  endloop
endfacet
facet normal 0.4551988762015562 -0.8903897927901242 3.944304526105059e-31
  outer loop
    vertex 46.06976181675474 31.27671446087674 142.980987999998
    vertex 46.59088111094055 31.543129146895343 139.980987999998
    vertex 46.590881110940636 31.543129146895343 142.980987999998
  endloop
endfacet
facet normal 0.7612863469925123 -0.6484158371622306 7.88860905221012e-31
  outer loop
    vertex 45.69026285333766 30.831155665132982 139.980987999998
    vertex 46.06976181675474 31.27671446087674 142.980987999998
    vertex 45.69026285333772 30.831155665132982 142.980987999998
  endloop
endfacet
facet normal 0.7612863469925123 -0.6484158371622306 7.88860905221012e-31
  outer loop
    vertex 46.06976181675474 31.27671446087674 142.980987999998
    vertex 45.69026285333766 30.831155665132982 139.980987999998
    vertex 46.06976181675465 31.27671446087674 139.980987999998
  endloop
endfacet
facet normal 0.9514748725317966 -0.3077264482305692 -7.888609052210116e-31
  outer loop
    vertex 45.51015949770311 30.274285047315523 139.980987999998
    vertex 45.69026285333772 30.831155665132982 142.980987999998
    vertex 45.51015949770318 30.274285047315523 142.980987999998
  endloop
endfacet
facet normal 0.9514748725317966 -0.3077264482305692 -7.888609052210116e-31
  outer loop
    vertex 45.69026285333772 30.831155665132982 142.980987999998
    vertex 45.51015949770311 30.274285047315523 139.980987999998
    vertex 45.69026285333766 30.831155665132982 139.980987999998
  endloop
endfacet
facet normal 0.9968099738693041 0.07981150289699623 3.944304526105059e-31
  outer loop
    vertex 45.55687085310541 29.69088111094237 139.980987999998
    vertex 45.51015949770318 30.274285047315523 142.980987999998
    vertex 45.55687085310547 29.69088111094237 142.980987999998
  endloop
endfacet
facet normal 0.9968099738693041 0.07981150289699623 3.944304526105059e-31
  outer loop
    vertex 45.51015949770318 30.274285047315523 142.980987999998
    vertex 45.55687085310541 29.69088111094237 139.980987999998
    vertex 45.51015949770311 30.274285047315523 139.980987999998
  endloop
endfacet
facet normal 0.8903897927901242 0.4551988762015562 1.9721522630525295e-31
  outer loop
    vertex 45.82328553912403 29.169761816756473 139.980987999998
    vertex 45.55687085310547 29.69088111094237 142.980987999998
    vertex 45.8232855391241 29.169761816756473 142.980987999998
  endloop
endfacet
facet normal 0.8903897927901242 0.4551988762015562 1.9721522630525295e-31
  outer loop
    vertex 45.55687085310547 29.69088111094237 142.980987999998
    vertex 45.82328553912403 29.169761816756473 139.980987999998
    vertex 45.55687085310541 29.69088111094237 139.980987999998
  endloop
endfacet
facet normal 0.6484158371622306 0.7612863469925123 -1.0846837446788914e-30
  outer loop
    vertex 45.8232855391241 29.169761816756473 142.980987999998
    vertex 46.26884433486786 28.790262853339456 139.980987999998
    vertex 45.82328553912403 29.169761816756473 139.980987999998
  endloop
endfacet
facet normal 0.6484158371622306 0.7612863469925123 -1.0846837446788914e-30
  outer loop
    vertex 46.26884433486786 28.790262853339456 139.980987999998
    vertex 45.8232855391241 29.169761816756473 142.980987999998
    vertex 46.26884433486787 28.790262853339456 142.980987999998
  endloop
endfacet
facet normal 0.3077264482305692 0.9514748725317966 -1.4791141972893967e-31
  outer loop
    vertex 46.82571495268533 28.61015949770489 142.980987999998
    vertex 46.26884433486786 28.790262853339456 139.980987999998
    vertex 46.26884433486787 28.790262853339456 142.980987999998
  endloop
endfacet
facet normal 0.3077264482305692 0.9514748725317966 -1.4791141972893967e-31
  outer loop
    vertex 46.26884433486786 28.790262853339456 139.980987999998
    vertex 46.82571495268533 28.61015949770489 142.980987999998
    vertex 46.82571495268532 28.61015949770489 139.980987999998
  endloop
endfacet
facet normal -0.07981150289699623 0.9968099738693041 0.0
  outer loop
    vertex 47.409118889058504 28.656870853107186 142.98098799999806
    vertex 46.82571495268532 28.61015949770489 139.980987999998
    vertex 46.82571495268533 28.61015949770489 142.980987999998
  endloop
endfacet
facet normal -0.07981150289699623 0.9968099738693041 0.0
  outer loop
    vertex 46.82571495268532 28.61015949770489 139.980987999998
    vertex 47.409118889058504 28.656870853107186 142.98098799999806
    vertex 47.40911888905847 28.656870853107186 139.98098799999806
  endloop
endfacet
facet normal -0.4551988762015562 0.8903897927901242 -3.944304526105059e-31
  outer loop
    vertex 47.409118889058504 28.656870853107186 142.98098799999806
    vertex 47.93023818324428 28.92328553912581 139.98098799999806
    vertex 47.40911888905847 28.656870853107186 139.98098799999806
  endloop
endfacet
facet normal -0.4551988762015562 0.8903897927901242 -3.944304526105059e-31
  outer loop
    vertex 47.93023818324428 28.92328553912581 139.98098799999806
    vertex 47.409118889058504 28.656870853107186 142.98098799999806
    vertex 47.93023818324437 28.92328553912581 142.98098799999806
  endloop
endfacet
facet normal -0.7612863469925123 0.6484158371622306 -7.88860905221012e-31
  outer loop
    vertex 48.30973714666131 29.36884433486957 139.98098799999806
    vertex 47.93023818324437 28.92328553912581 142.98098799999806
    vertex 48.309737146661384 29.36884433486957 142.98098799999806
  endloop
endfacet
facet normal -0.7612863469925123 0.6484158371622306 -7.88860905221012e-31
  outer loop
    vertex 47.93023818324437 28.92328553912581 142.98098799999806
    vertex 48.30973714666131 29.36884433486957 139.98098799999806
    vertex 47.93023818324428 28.92328553912581 139.98098799999806
  endloop
endfacet
facet normal -0.9514748725317966 0.3077264482305692 7.888609052210116e-31
  outer loop
    vertex 48.48984050229586 29.925714952687027 139.98098799999806
    vertex 48.309737146661384 29.36884433486957 142.98098799999806
    vertex 48.48984050229593 29.925714952687027 142.98098799999806
  endloop
endfacet
facet normal -0.9514748725317966 0.3077264482305692 7.888609052210116e-31
  outer loop
    vertex 48.309737146661384 29.36884433486957 142.98098799999806
    vertex 48.48984050229586 29.925714952687027 139.98098799999806
    vertex 48.30973714666131 29.36884433486957 139.98098799999806
  endloop
endfacet
facet normal -0.9968099738693041 -0.07981150289699623 -3.944304526105059e-31
  outer loop
    vertex 48.44312914689356 30.50911888906018 139.98098799999806
    vertex 48.48984050229593 29.925714952687027 142.98098799999806
    vertex 48.44312914689363 30.50911888906018 142.98098799999806
  endloop
endfacet
facet normal -0.9968099738693041 -0.07981150289699623 -3.944304526105059e-31
  outer loop
    vertex 48.48984050229593 29.925714952687027 142.98098799999806
    vertex 48.44312914689356 30.50911888906018 139.98098799999806
    vertex 48.48984050229586 29.925714952687027 139.98098799999806
  endloop
endfacet
facet normal -0.8903897927901242 -0.4551988762015562 -1.9721522630525295e-31
  outer loop
    vertex 48.17671446087494 31.03023818324608 139.98098799999806
    vertex 48.44312914689363 30.50911888906018 142.98098799999806
    vertex 48.176714460875004 31.03023818324608 142.98098799999806
  endloop
endfacet
facet normal -0.8903897927901242 -0.4551988762015562 -1.9721522630525295e-31
  outer loop
    vertex 48.44312914689363 30.50911888906018 142.98098799999806
    vertex 48.17671446087494 31.03023818324608 139.98098799999806
    vertex 48.44312914689356 30.50911888906018 139.98098799999806
  endloop
endfacet
facet normal -0.6484158371622306 -0.7612863469925123 1.0846837446788914e-30
  outer loop
    vertex 48.17671446087494 31.03023818324608 139.98098799999806
    vertex 47.73115566513125 31.409737146663094 142.980987999998
    vertex 47.731155665131176 31.409737146663094 139.980987999998
  endloop
endfacet
facet normal -0.6484158371622306 -0.7612863469925123 1.0846837446788914e-30
  outer loop
    vertex 47.73115566513125 31.409737146663094 142.980987999998
    vertex 48.17671446087494 31.03023818324608 139.98098799999806
    vertex 48.176714460875004 31.03023818324608 142.98098799999806
  endloop
endfacet
facet normal -0.3077264482305692 -0.9514748725317966 1.4791141972893967e-31
  outer loop
    vertex 47.731155665131176 31.409737146663094 139.980987999998
    vertex 47.17428504731379 31.58984050229764 142.980987999998
    vertex 47.174285047313724 31.58984050229764 139.980987999998
  endloop
endfacet
facet normal -0.3077264482305692 -0.9514748725317966 1.4791141972893967e-31
  outer loop
    vertex 47.17428504731379 31.58984050229764 142.980987999998
    vertex 47.731155665131176 31.409737146663094 139.980987999998
    vertex 47.73115566513125 31.409737146663094 142.980987999998
  endloop
endfacet
facet normal 0.9807852804032348 -0.19509032201610682 -7.888609052210118e-31
  outer loop
    vertex -48.500000000000405 -30.299999999998906 139.9809879999982
    vertex -48.385819298767366 -29.725974851451294 142.9809879999982
    vertex -48.500000000000426 -30.299999999998928 142.9809879999982
  endloop
endfacet
facet normal 0.9807852804032348 -0.19509032201610682 -7.888609052210118e-31
  outer loop
    vertex -48.385819298767366 -29.725974851451294 142.9809879999982
    vertex -48.500000000000405 -30.299999999998906 139.9809879999982
    vertex -48.38581929876735 -29.725974851451273 139.9809879999982
  endloop
endfacet
facet normal 0.9807852804032237 0.19509032201616244 0.0
  outer loop
    vertex -48.385819298767316 -30.87402514854654 139.98098799999818
    vertex -48.500000000000426 -30.299999999998928 142.9809879999982
    vertex -48.3858192987673 -30.87402514854656 142.9809879999982
  endloop
endfacet
facet normal 0.9807852804032237 0.19509032201616244 0.0
  outer loop
    vertex -48.500000000000426 -30.299999999998928 142.9809879999982
    vertex -48.385819298767316 -30.87402514854654 139.98098799999818
    vertex -48.500000000000405 -30.299999999998906 139.9809879999982
  endloop
endfacet
facet normal 0.831469612302529 0.5555702330196264 1.1832913578315174e-30
  outer loop
    vertex -48.060660171780164 -31.360660171778708 139.98098799999823
    vertex -48.3858192987673 -30.87402514854656 142.9809879999982
    vertex -48.060660171780185 -31.36066017177873 142.98098799999823
  endloop
endfacet
facet normal 0.831469612302529 0.5555702330196264 1.1832913578315174e-30
  outer loop
    vertex -48.3858192987673 -30.87402514854656 142.9809879999982
    vertex -48.060660171780164 -31.360660171778708 139.98098799999823
    vertex -48.385819298767316 -30.87402514854654 139.98098799999818
  endloop
endfacet
facet normal 0.555570233019573 0.8314696123025648 -2.9582283945787943e-31
  outer loop
    vertex -47.57402514854798 -31.685819298765825 142.98098799999823
    vertex -48.060660171780164 -31.360660171778708 139.98098799999823
    vertex -48.060660171780185 -31.36066017177873 142.98098799999823
  endloop
endfacet
facet normal 0.555570233019573 0.8314696123025648 -2.9582283945787943e-31
  outer loop
    vertex -48.060660171780164 -31.360660171778708 139.98098799999823
    vertex -47.57402514854798 -31.685819298765825 142.98098799999823
    vertex -47.57402514854797 -31.68581929876579 139.98098799999823
  endloop
endfacet
facet normal 0.19509032201610682 0.9807852804032348 4.930380657631324e-32
  outer loop
    vertex -47.00000000000035 -31.799999999998914 142.98098799999823
    vertex -47.57402514854797 -31.68581929876579 139.98098799999823
    vertex -47.57402514854798 -31.685819298765825 142.98098799999823
  endloop
endfacet
facet normal 0.19509032201610682 0.9807852804032348 4.930380657631324e-32
  outer loop
    vertex -47.57402514854797 -31.68581929876579 139.98098799999823
    vertex -47.00000000000035 -31.799999999998914 142.98098799999823
    vertex -47.000000000000334 -31.79999999999888 139.98098799999823
  endloop
endfacet
facet normal -0.19509032201616244 0.9807852804032237 -7.888609052210118e-31
  outer loop
    vertex -46.425974851452715 -31.685819298765786 142.98098799999823
    vertex -47.000000000000334 -31.79999999999888 139.98098799999823
    vertex -47.00000000000035 -31.799999999998914 142.98098799999823
  endloop
endfacet
facet normal -0.19509032201616244 0.9807852804032237 -7.888609052210118e-31
  outer loop
    vertex -47.000000000000334 -31.79999999999888 139.98098799999823
    vertex -46.425974851452715 -31.685819298765786 142.98098799999823
    vertex -46.4259748514527 -31.685819298765747 139.98098799999823
  endloop
endfacet
facet normal -0.5555702330196264 0.831469612302529 0.0
  outer loop
    vertex -45.93933982822055 -31.36066017177867 142.9809879999982
    vertex -46.4259748514527 -31.685819298765747 139.98098799999823
    vertex -46.425974851452715 -31.685819298765786 142.98098799999823
  endloop
endfacet
facet normal -0.5555702330196264 0.831469612302529 0.0
  outer loop
    vertex -46.4259748514527 -31.685819298765747 139.98098799999823
    vertex -45.93933982822055 -31.36066017177867 142.9809879999982
    vertex -45.93933982822054 -31.36066017177865 139.9809879999982
  endloop
endfacet
facet normal -0.8314696123025648 0.555570233019573 3.944304526105059e-31
  outer loop
    vertex -45.61418070123345 -30.87402514854648 142.9809879999982
    vertex -45.93933982822054 -31.36066017177865 139.9809879999982
    vertex -45.93933982822055 -31.36066017177867 142.9809879999982
  endloop
endfacet
facet normal -0.8314696123025648 0.555570233019573 3.944304526105059e-31
  outer loop
    vertex -45.93933982822054 -31.36066017177865 139.9809879999982
    vertex -45.61418070123345 -30.87402514854648 142.9809879999982
    vertex -45.61418070123347 -30.87402514854645 139.9809879999982
  endloop
endfacet
facet normal -0.9807852804032348 0.19509032201610682 7.888609052210118e-31
  outer loop
    vertex -45.50000000000041 -30.299999999998818 139.9809879999982
    vertex -45.61418070123345 -30.87402514854648 142.9809879999982
    vertex -45.50000000000041 -30.299999999998846 142.9809879999982
  endloop
endfacet
facet normal -0.9807852804032348 0.19509032201610682 7.888609052210118e-31
  outer loop
    vertex -45.61418070123345 -30.87402514854648 142.9809879999982
    vertex -45.50000000000041 -30.299999999998818 139.9809879999982
    vertex -45.61418070123347 -30.87402514854645 139.9809879999982
  endloop
endfacet
facet normal -0.9807852804032237 -0.19509032201616244 0.0
  outer loop
    vertex -45.6141807012335 -29.725974851451184 139.98098799999823
    vertex -45.50000000000041 -30.299999999998846 142.9809879999982
    vertex -45.61418070123352 -29.725974851451213 142.98098799999823
  endloop
endfacet
facet normal -0.9807852804032237 -0.19509032201616244 0.0
  outer loop
    vertex -45.50000000000041 -30.299999999998846 142.9809879999982
    vertex -45.6141807012335 -29.725974851451184 139.98098799999823
    vertex -45.50000000000041 -30.299999999998818 139.9809879999982
  endloop
endfacet
facet normal -0.831469612302529 -0.5555702330196264 -1.1832913578315174e-30
  outer loop
    vertex -45.93933982822063 -29.239339828219048 139.98098799999823
    vertex -45.61418070123352 -29.725974851451213 142.98098799999823
    vertex -45.93933982822064 -29.239339828219048 142.98098799999823
  endloop
endfacet
facet normal -0.831469612302529 -0.5555702330196264 -1.1832913578315174e-30
  outer loop
    vertex -45.61418070123352 -29.725974851451213 142.98098799999823
    vertex -45.93933982822063 -29.239339828219048 139.98098799999823
    vertex -45.6141807012335 -29.725974851451184 139.98098799999823
  endloop
endfacet
facet normal -0.555570233019573 -0.8314696123025648 2.9582283945787943e-31
  outer loop
    vertex -46.42597485145282 -28.91418070123193 139.98098799999823
    vertex -45.93933982822064 -29.239339828219048 142.98098799999823
    vertex -46.425974851452835 -28.91418070123193 142.98098799999823
  endloop
endfacet
facet normal -0.555570233019573 -0.8314696123025648 2.9582283945787943e-31
  outer loop
    vertex -45.93933982822064 -29.239339828219048 142.98098799999823
    vertex -46.42597485145282 -28.91418070123193 139.98098799999823
    vertex -45.93933982822063 -29.239339828219048 139.98098799999823
  endloop
endfacet
facet normal -0.19509032201610682 -0.9807852804032348 -4.930380657631324e-32
  outer loop
    vertex -47.000000000000455 -28.799999999998885 139.98098799999823
    vertex -46.425974851452835 -28.91418070123193 142.98098799999823
    vertex -47.00000000000047 -28.799999999998885 142.98098799999823
  endloop
endfacet
facet normal -0.19509032201610682 -0.9807852804032348 -4.930380657631324e-32
  outer loop
    vertex -46.425974851452835 -28.91418070123193 142.98098799999823
    vertex -47.000000000000455 -28.799999999998885 139.98098799999823
    vertex -46.42597485145282 -28.91418070123193 139.98098799999823
  endloop
endfacet
facet normal 0.19509032201616244 -0.9807852804032237 7.888609052210118e-31
  outer loop
    vertex -47.57402514854809 -28.91418070123196 139.98098799999818
    vertex -47.00000000000047 -28.799999999998885 142.98098799999823
    vertex -47.5740251485481 -28.91418070123196 142.9809879999982
  endloop
endfacet
facet normal 0.19509032201616244 -0.9807852804032237 7.888609052210118e-31
  outer loop
    vertex -47.00000000000047 -28.799999999998885 142.98098799999823
    vertex -47.57402514854809 -28.91418070123196 139.98098799999818
    vertex -47.000000000000455 -28.799999999998885 139.98098799999823
  endloop
endfacet
facet normal 0.5555702330196264 -0.831469612302529 0.0
  outer loop
    vertex -48.060660171780256 -29.239339828219112 139.9809879999982
    vertex -47.5740251485481 -28.91418070123196 142.9809879999982
    vertex -48.06066017178027 -29.239339828219112 142.9809879999982
  endloop
endfacet
facet normal 0.5555702330196264 -0.831469612302529 0.0
  outer loop
    vertex -47.5740251485481 -28.91418070123196 142.9809879999982
    vertex -48.060660171780256 -29.239339828219112 139.9809879999982
    vertex -47.57402514854809 -28.91418070123196 139.98098799999818
  endloop
endfacet
facet normal 0.8314696123025648 -0.555570233019573 -3.944304526105059e-31
  outer loop
    vertex -48.38581929876735 -29.725974851451273 139.9809879999982
    vertex -48.06066017178027 -29.239339828219112 142.9809879999982
    vertex -48.385819298767366 -29.725974851451294 142.9809879999982
  endloop
endfacet
facet normal 0.8314696123025648 -0.555570233019573 -3.944304526105059e-31
  outer loop
    vertex -48.06066017178027 -29.239339828219112 142.9809879999982
    vertex -48.38581929876735 -29.725974851451273 139.9809879999982
    vertex -48.060660171780256 -29.239339828219112 139.9809879999982
  endloop
endfacet
facet normal 0.19509032201612536 -0.9807852804032311 0.0
  outer loop
    vertex -47.57402514854813 31.485819298768046 139.98098799999823
    vertex -47.00000000000052 31.60000000000106 142.9809879999982
    vertex -47.57402514854815 31.485819298768046 142.9809879999982
  endloop
endfacet
facet normal 0.19509032201612536 -0.9807852804032311 0.0
  outer loop
    vertex -47.00000000000052 31.60000000000106 142.9809879999982
    vertex -47.57402514854813 31.485819298768046 139.98098799999823
    vertex -47.0000000000005 31.60000000000106 139.98098799999823
  endloop
endfacet
facet normal 0.5555702330195952 -0.83146961230255 2.7610131682735413e-30
  outer loop
    vertex -47.57402514854813 31.485819298768046 139.98098799999823
    vertex -48.060660171780306 31.16066017178092 142.9809879999982
    vertex -48.06066017178033 31.16066017178092 139.98098799999823
  endloop
endfacet
facet normal 0.5555702330195952 -0.83146961230255 2.7610131682735413e-30
  outer loop
    vertex -48.060660171780306 31.16066017178092 142.9809879999982
    vertex -47.57402514854813 31.485819298768046 139.98098799999823
    vertex -47.57402514854815 31.485819298768046 142.9809879999982
  endloop
endfacet
facet normal 0.8314696123025499 -0.5555702330195952 0.0
  outer loop
    vertex -48.38581929876741 30.67402514854875 139.98098799999823
    vertex -48.060660171780306 31.16066017178092 142.9809879999982
    vertex -48.385819298767416 30.67402514854875 142.9809879999982
  endloop
endfacet
facet normal 0.8314696123025499 -0.5555702330195952 0.0
  outer loop
    vertex -48.060660171780306 31.16066017178092 142.9809879999982
    vertex -48.38581929876741 30.67402514854875 139.98098799999823
    vertex -48.06066017178033 31.16066017178092 139.98098799999823
  endloop
endfacet
facet normal 0.9807852804032311 -0.19509032201612536 -7.888609052210118e-31
  outer loop
    vertex -48.50000000000046 30.100000000001117 139.98098799999823
    vertex -48.385819298767416 30.67402514854875 142.9809879999982
    vertex -48.50000000000048 30.100000000001117 142.9809879999982
  endloop
endfacet
facet normal 0.9807852804032311 -0.19509032201612536 -7.888609052210118e-31
  outer loop
    vertex -48.385819298767416 30.67402514854875 142.9809879999982
    vertex -48.50000000000046 30.100000000001117 139.98098799999823
    vertex -48.38581929876741 30.67402514854875 139.98098799999823
  endloop
endfacet
facet normal 0.9807852804032311 0.19509032201612536 1.5777218104420236e-30
  outer loop
    vertex -48.385819298767395 29.525974851453483 139.98098799999823
    vertex -48.50000000000048 30.100000000001117 142.9809879999982
    vertex -48.385819298767416 29.525974851453483 142.9809879999982
  endloop
endfacet
facet normal 0.9807852804032311 0.19509032201612536 1.5777218104420236e-30
  outer loop
    vertex -48.50000000000048 30.100000000001117 142.9809879999982
    vertex -48.385819298767395 29.525974851453483 139.98098799999823
    vertex -48.50000000000046 30.100000000001117 139.98098799999823
  endloop
endfacet
facet normal 0.8314696123025499 0.5555702330195952 7.888609052210116e-31
  outer loop
    vertex -48.06066017178029 29.039339828221273 139.98098799999823
    vertex -48.385819298767416 29.525974851453483 142.9809879999982
    vertex -48.060660171780306 29.039339828221273 142.9809879999982
  endloop
endfacet
facet normal 0.8314696123025499 0.5555702330195952 7.888609052210116e-31
  outer loop
    vertex -48.385819298767416 29.525974851453483 142.9809879999982
    vertex -48.06066017178029 29.039339828221273 139.98098799999823
    vertex -48.385819298767395 29.525974851453483 139.98098799999823
  endloop
endfacet
facet normal 0.5555702330195952 0.8314696123025499 -6.902532920683853e-31
  outer loop
    vertex -47.5740251485481 28.714180701234188 142.9809879999982
    vertex -48.06066017178029 29.039339828221273 139.98098799999823
    vertex -48.060660171780306 29.039339828221273 142.9809879999982
  endloop
endfacet
facet normal 0.5555702330195952 0.8314696123025499 -6.902532920683853e-31
  outer loop
    vertex -48.06066017178029 29.039339828221273 139.98098799999823
    vertex -47.5740251485481 28.714180701234188 142.9809879999982
    vertex -47.5740251485481 28.714180701234188 139.98098799999823
  endloop
endfacet
facet normal 0.19509032201612536 0.9807852804032311 2.9582283945787943e-31
  outer loop
    vertex -47.0000000000005 28.600000000001074 142.9809879999982
    vertex -47.5740251485481 28.714180701234188 139.98098799999823
    vertex -47.5740251485481 28.714180701234188 142.9809879999982
  endloop
endfacet
facet normal 0.19509032201612536 0.9807852804032311 2.9582283945787943e-31
  outer loop
    vertex -47.5740251485481 28.714180701234188 139.98098799999823
    vertex -47.0000000000005 28.600000000001074 142.9809879999982
    vertex -47.0000000000005 28.600000000001074 139.98098799999823
  endloop
endfacet
facet normal -0.19509032201612536 0.9807852804032311 0.0
  outer loop
    vertex -46.425974851452835 28.714180701234167 142.9809879999982
    vertex -47.0000000000005 28.600000000001074 139.98098799999823
    vertex -47.0000000000005 28.600000000001074 142.9809879999982
  endloop
endfacet
facet normal -0.19509032201612536 0.9807852804032311 0.0
  outer loop
    vertex -47.0000000000005 28.600000000001074 139.98098799999823
    vertex -46.425974851452835 28.714180701234167 142.9809879999982
    vertex -46.425974851452835 28.714180701234167 139.98098799999823
  endloop
endfacet
facet normal -0.5555702330195952 0.83146961230255 -2.7610131682735413e-30
  outer loop
    vertex -45.939339828220646 29.039339828221227 142.9809879999982
    vertex -46.425974851452835 28.714180701234167 139.98098799999823
    vertex -46.425974851452835 28.714180701234167 142.9809879999982
  endloop
endfacet
facet normal -0.5555702330195952 0.83146961230255 -2.7610131682735413e-30
  outer loop
    vertex -46.425974851452835 28.714180701234167 139.98098799999823
    vertex -45.939339828220646 29.039339828221227 142.9809879999982
    vertex -45.939339828220646 29.039339828221227 139.98098799999823
  endloop
endfacet
facet normal -0.8314696123025499 0.5555702330195952 0.0
  outer loop
    vertex -45.614180701233536 29.52597485145344 139.98098799999823
    vertex -45.939339828220646 29.039339828221227 142.9809879999982
    vertex -45.61418070123356 29.52597485145344 142.9809879999982
  endloop
endfacet
facet normal -0.8314696123025499 0.5555702330195952 0.0
  outer loop
    vertex -45.939339828220646 29.039339828221227 142.9809879999982
    vertex -45.614180701233536 29.52597485145344 139.98098799999823
    vertex -45.939339828220646 29.039339828221227 139.98098799999823
  endloop
endfacet
facet normal -0.9807852804032311 0.19509032201612536 7.888609052210118e-31
  outer loop
    vertex -45.50000000000047 30.100000000001153 139.98098799999823
    vertex -45.61418070123356 29.52597485145344 142.9809879999982
    vertex -45.50000000000048 30.100000000001153 142.9809879999982
  endloop
endfacet
facet normal -0.9807852804032311 0.19509032201612536 7.888609052210118e-31
  outer loop
    vertex -45.61418070123356 29.52597485145344 142.9809879999982
    vertex -45.50000000000047 30.100000000001153 139.98098799999823
    vertex -45.614180701233536 29.52597485145344 139.98098799999823
  endloop
endfacet
facet normal -0.9807852804032311 -0.19509032201612536 -1.5777218104420236e-30
  outer loop
    vertex -45.61418070123355 30.674025148548708 139.98098799999823
    vertex -45.50000000000048 30.100000000001153 142.9809879999982
    vertex -45.61418070123356 30.674025148548708 142.9809879999982
  endloop
endfacet
facet normal -0.9807852804032311 -0.19509032201612536 -1.5777218104420236e-30
  outer loop
    vertex -45.50000000000048 30.100000000001153 142.9809879999982
    vertex -45.61418070123355 30.674025148548708 139.98098799999823
    vertex -45.50000000000047 30.100000000001153 139.98098799999823
  endloop
endfacet
facet normal -0.8314696123025499 -0.5555702330195952 -7.888609052210116e-31
  outer loop
    vertex -45.939339828220675 31.160660171780876 139.98098799999823
    vertex -45.61418070123356 30.674025148548708 142.9809879999982
    vertex -45.93933982822066 31.160660171780876 142.9809879999982
  endloop
endfacet
facet normal -0.8314696123025499 -0.5555702330195952 -7.888609052210116e-31
  outer loop
    vertex -45.61418070123356 30.674025148548708 142.9809879999982
    vertex -45.939339828220675 31.160660171780876 139.98098799999823
    vertex -45.61418070123355 30.674025148548708 139.98098799999823
  endloop
endfacet
facet normal -0.5555702330195952 -0.8314696123025499 6.902532920683853e-31
  outer loop
    vertex -46.425974851452864 31.485819298768014 139.98098799999823
    vertex -45.93933982822066 31.160660171780876 142.9809879999982
    vertex -46.425974851452864 31.485819298768014 142.9809879999982
  endloop
endfacet
facet normal -0.5555702330195952 -0.8314696123025499 6.902532920683853e-31
  outer loop
    vertex -45.93933982822066 31.160660171780876 142.9809879999982
    vertex -46.425974851452864 31.485819298768014 139.98098799999823
    vertex -45.939339828220675 31.160660171780876 139.98098799999823
  endloop
endfacet
facet normal -0.19509032201612536 -0.9807852804032311 -2.9582283945787943e-31
  outer loop
    vertex -47.0000000000005 31.60000000000106 139.98098799999823
    vertex -46.425974851452864 31.485819298768014 142.9809879999982
    vertex -47.00000000000052 31.60000000000106 142.9809879999982
  endloop
endfacet
facet normal -0.19509032201612536 -0.9807852804032311 -2.9582283945787943e-31
  outer loop
    vertex -46.425974851452864 31.485819298768014 142.9809879999982
    vertex -47.0000000000005 31.60000000000106 139.98098799999823
    vertex -46.425974851452864 31.485819298768014 139.98098799999823
  endloop
endfacet
endsolid Rover v4
