solid Rover Old Parts
facet normal -1.0 9.116976179852461e-16 -1.595933447042224e-14
  outer loop
    vertex 361.7954021461041 91.0740022284992 2.540900039925204
    vertex 361.79540214610404 100.57400222849913 6.540900039925555
    vertex 361.79540214610415 100.5740022284992 2.540900039925269
  endloop
endfacet
facet normal -1.0 9.116976179852461e-16 -1.595933447042224e-14
  outer loop
    vertex 361.79540214610404 100.57400222849913 6.540900039925555
    vertex 361.7954021461041 91.0740022284992 2.540900039925204
    vertex 361.7954021461041 91.07400222849914 6.540900039925265
  endloop
endfacet
facet normal 1.0813426177871694e-14 -1.0 1.0319477238457692e-14
  outer loop
    vertex 372.2954021461041 90.07400222849921 2.5409000399253427
    vertex 362.7954021461041 90.07400222849913 6.54090003992525
    vertex 362.7954021461041 90.074002228499 2.5409000399252353
  endloop
endfacet
facet normal 1.0813426177871694e-14 -1.0 1.0319477238457692e-14
  outer loop
    vertex 362.7954021461041 90.07400222849913 6.54090003992525
    vertex 372.2954021461041 90.07400222849921 2.5409000399253427
    vertex 372.2954021461041 90.07400222849915 6.540900039925267
  endloop
endfacet
facet normal -0.7071067811865427 -2.3910906949014184e-14 0.7071067811865525
  outer loop
    vertex 362.79540214610404 100.57400222849908 7.540900039925564
    vertex 361.7954021461041 91.07400222849914 6.540900039925265
    vertex 362.7954021461041 91.07400222849914 7.540900039925263
  endloop
endfacet
facet normal -0.7071067811865427 -2.3910906949014184e-14 0.7071067811865525
  outer loop
    vertex 361.7954021461041 91.07400222849914 6.540900039925265
    vertex 362.79540214610404 100.57400222849908 7.540900039925564
    vertex 361.79540214610404 100.57400222849913 6.540900039925555
  endloop
endfacet
facet normal -0.7071067811865505 8.406807559871043e-15 -0.7071067811865447
  outer loop
    vertex 362.79540214610415 100.57400222849918 1.5409000399252928
    vertex 361.7954021461041 91.0740022284992 2.540900039925204
    vertex 361.79540214610415 100.5740022284992 2.540900039925269
  endloop
endfacet
facet normal -0.7071067811865505 8.406807559871043e-15 -0.7071067811865447
  outer loop
    vertex 361.7954021461041 91.0740022284992 2.540900039925204
    vertex 362.79540214610415 100.57400222849918 1.5409000399252928
    vertex 362.7954021461041 91.07400222849903 1.5409000399252395
  endloop
endfacet
facet normal -0.7071067811865809 -0.7071067811865142 4.738084304949345e-15
  outer loop
    vertex 362.7954021461041 90.074002228499 2.5409000399252353
    vertex 361.7954021461041 91.07400222849914 6.540900039925265
    vertex 361.7954021461041 91.0740022284992 2.540900039925204
  endloop
endfacet
facet normal -0.7071067811865809 -0.7071067811865142 4.738084304949345e-15
  outer loop
    vertex 361.7954021461041 91.07400222849914 6.540900039925265
    vertex 362.7954021461041 90.074002228499 2.5409000399252353
    vertex 362.7954021461041 90.07400222849913 6.54090003992525
  endloop
endfacet
facet normal -0.7071067811865366 0.7071067811865586 -3.122546452487852e-15
  outer loop
    vertex 361.79540214610404 100.57400222849913 6.540900039925555
    vertex 362.79540214610415 101.57400222849915 2.540900039925305
    vertex 361.79540214610415 100.5740022284992 2.540900039925269
  endloop
endfacet
facet normal -0.7071067811865366 0.7071067811865586 -3.122546452487852e-15
  outer loop
    vertex 362.79540214610415 101.57400222849915 2.540900039925305
    vertex 361.79540214610404 100.57400222849913 6.540900039925555
    vertex 362.7954021461041 101.57400222849908 6.540900039925603
  endloop
endfacet
facet normal 1.0 1.6114302874525003e-15 8.556922453735453e-15
  outer loop
    vertex 373.295402146104 100.57400222849907 6.540900039925436
    vertex 373.2954021461041 91.07400222849914 2.5409000399252886
    vertex 373.2954021461041 100.57400222849915 2.540900039925421
  endloop
endfacet
facet normal 1.0 1.6114302874525003e-15 8.556922453735453e-15
  outer loop
    vertex 373.2954021461041 91.07400222849914 2.5409000399252886
    vertex 373.295402146104 100.57400222849907 6.540900039925436
    vertex 373.29540214610404 91.07400222849908 6.540900039925236
  endloop
endfacet
facet normal 0.793353340291244 0.6087614290087093 8.37448299486229e-15
  outer loop
    vertex 365.4947924806631 93.77339256305814 7.540900039925321
    vertex 365.34540214610405 93.96808183751277 1.540900039925335
    vertex 365.34540214610405 93.96808183751268 7.540900039925325
  endloop
endfacet
facet normal 0.793353340291244 0.6087614290087093 8.37448299486229e-15
  outer loop
    vertex 365.34540214610405 93.96808183751277 1.540900039925335
    vertex 365.4947924806631 93.77339256305814 7.540900039925321
    vertex 365.4947924806631 93.77339256305822 1.5409000399253434
  endloop
endfacet
facet normal 1.0 -2.1514249169246456e-16 1.5667996083480478e-16
  outer loop
    vertex 365.34540214610405 93.96808183751268 7.540900039925325
    vertex 365.3454021461041 97.67992261948565 1.5409000399253752
    vertex 365.34540214610405 97.67992261948557 7.540900039925364
  endloop
endfacet
facet normal 1.0 -2.1514249169246456e-16 1.5667996083480478e-16
  outer loop
    vertex 365.3454021461041 97.67992261948565 1.5409000399253752
    vertex 365.34540214610405 93.96808183751268 7.540900039925325
    vertex 365.34540214610405 93.96808183751277 1.540900039925335
  endloop
endfacet
facet normal 0.7933533402912477 -0.6087614290087041 -9.281191764810285e-15
  outer loop
    vertex 365.34540214610405 97.67992261948557 7.540900039925364
    vertex 365.4947924806631 97.87461189394018 1.5409000399254005
    vertex 365.4947924806631 97.87461189394011 7.540900039925378
  endloop
endfacet
facet normal 0.7933533402912477 -0.6087614290087041 -9.281191764810285e-15
  outer loop
    vertex 365.4947924806631 97.87461189394018 1.5409000399254005
    vertex 365.34540214610405 97.67992261948557 7.540900039925364
    vertex 365.3454021461041 97.67992261948565 1.5409000399253752
  endloop
endfacet
facet normal 0.6087614290087201 -0.7933533402912358 -1.1852532715428125e-14
  outer loop
    vertex 366.09540214610405 98.33547589947399 7.540900039925384
    vertex 365.4947924806631 97.87461189394018 1.5409000399254005
    vertex 366.09540214610405 98.33547589947408 1.5409000399254067
  endloop
endfacet
facet normal 0.6087614290087201 -0.7933533402912358 -1.1852532715428125e-14
  outer loop
    vertex 365.4947924806631 97.87461189394018 1.5409000399254005
    vertex 366.09540214610405 98.33547589947399 7.540900039925384
    vertex 365.4947924806631 97.87461189394011 7.540900039925378
  endloop
endfacet
facet normal 0.3826834323650969 -0.9238795325112839 -1.3616143148725669e-14
  outer loop
    vertex 366.7948269153067 98.62518712473742 7.540900039925388
    vertex 366.09540214610405 98.33547589947408 1.5409000399254067
    vertex 366.7948269153067 98.62518712473751 1.540900039925399
  endloop
endfacet
facet normal 0.3826834323650969 -0.9238795325112839 -1.3616143148725669e-14
  outer loop
    vertex 366.09540214610405 98.33547589947408 1.5409000399254067
    vertex 366.7948269153067 98.62518712473742 7.540900039925388
    vertex 366.09540214610405 98.33547589947399 7.540900039925384
  endloop
endfacet
facet normal 0.13052619222005032 -0.9914448613738107 -1.4451835928178113e-14
  outer loop
    vertex 367.54540214610404 98.7240022284992 1.5409000399254564
    vertex 366.7948269153067 98.62518712473742 7.540900039925388
    vertex 366.7948269153067 98.62518712473751 1.540900039925399
  endloop
endfacet
facet normal 0.13052619222005032 -0.9914448613738107 -1.4451835928178113e-14
  outer loop
    vertex 366.7948269153067 98.62518712473742 7.540900039925388
    vertex 367.54540214610404 98.7240022284992 1.5409000399254564
    vertex 367.54540214610404 98.72400222849913 7.540900039925434
  endloop
endfacet
facet normal -0.1305261922200491 -0.9914448613738107 -1.430265997191328e-14
  outer loop
    vertex 368.29597737690136 98.62518712473742 7.540900039925386
    vertex 367.54540214610404 98.7240022284992 1.5409000399254564
    vertex 368.29597737690136 98.62518712473751 1.5409000399253983
  endloop
endfacet
facet normal -0.1305261922200491 -0.9914448613738107 -1.430265997191328e-14
  outer loop
    vertex 367.54540214610404 98.7240022284992 1.5409000399254564
    vertex 368.29597737690136 98.62518712473742 7.540900039925386
    vertex 367.54540214610404 98.72400222849913 7.540900039925434
  endloop
endfacet
facet normal -0.38268343236508906 -0.9238795325112872 -1.3178781374825728e-14
  outer loop
    vertex 368.995402146104 98.33547589947408 1.5409000399254051
    vertex 368.29597737690136 98.62518712473742 7.540900039925386
    vertex 368.29597737690136 98.62518712473751 1.5409000399253983
  endloop
endfacet
facet normal -0.38268343236508906 -0.9238795325112872 -1.3178781374825728e-14
  outer loop
    vertex 368.29597737690136 98.62518712473742 7.540900039925386
    vertex 368.995402146104 98.33547589947408 1.5409000399254051
    vertex 368.995402146104 98.33547589947399 7.540900039925405
  endloop
endfacet
facet normal -0.6087614290087199 -0.7933533402912356 -1.115679060600976e-14
  outer loop
    vertex 369.596011811545 97.87461189394013 7.540900039925376
    vertex 368.995402146104 98.33547589947408 1.5409000399254051
    vertex 369.59601181154505 97.8746118939402 1.5409000399253983
  endloop
endfacet
facet normal -0.6087614290087199 -0.7933533402912356 -1.115679060600976e-14
  outer loop
    vertex 368.995402146104 98.33547589947408 1.5409000399254051
    vertex 369.596011811545 97.87461189394013 7.540900039925376
    vertex 368.995402146104 98.33547589947399 7.540900039925405
  endloop
endfacet
facet normal -0.7933533402912216 -0.6087614290087382 -8.374482994862713e-15
  outer loop
    vertex 369.7454021461041 97.67992261948565 1.5409000399253843
    vertex 369.596011811545 97.87461189394013 7.540900039925376
    vertex 369.59601181154505 97.8746118939402 1.5409000399253983
  endloop
endfacet
facet normal -0.7933533402912216 -0.6087614290087382 -8.374482994862713e-15
  outer loop
    vertex 369.596011811545 97.87461189394013 7.540900039925376
    vertex 369.7454021461041 97.67992261948565 1.5409000399253843
    vertex 369.745402146104 97.67992261948557 7.540900039925361
  endloop
endfacet
facet normal -1.0 -1.4380579828961343e-15 -2.0738857865580997e-16
  outer loop
    vertex 369.7454021461041 93.96808183751277 1.5409000399253214
    vertex 369.745402146104 97.67992261948557 7.540900039925361
    vertex 369.7454021461041 97.67992261948565 1.5409000399253843
  endloop
endfacet
facet normal -1.0 -1.4380579828961343e-15 -2.0738857865580997e-16
  outer loop
    vertex 369.745402146104 97.67992261948557 7.540900039925361
    vertex 369.7454021461041 93.96808183751277 1.5409000399253214
    vertex 369.7454021461041 93.96808183751268 7.540900039925311
  endloop
endfacet
facet normal -0.7933533402912258 0.6087614290087331 9.281191764810691e-15
  outer loop
    vertex 369.59601181154505 93.77339256305822 1.5409000399253412
    vertex 369.7454021461041 93.96808183751268 7.540900039925311
    vertex 369.7454021461041 93.96808183751277 1.5409000399253214
  endloop
endfacet
facet normal -0.7933533402912258 0.6087614290087331 9.281191764810691e-15
  outer loop
    vertex 369.7454021461041 93.96808183751268 7.540900039925311
    vertex 369.59601181154505 93.77339256305822 1.5409000399253412
    vertex 369.596011811545 93.77339256305815 7.540900039925319
  endloop
endfacet
facet normal -0.6087614290087164 0.7933533402912383 1.1852532715428142e-14
  outer loop
    vertex 368.995402146104 93.31252855752435 1.5409000399253803
    vertex 369.596011811545 93.77339256305815 7.540900039925319
    vertex 369.59601181154505 93.77339256305822 1.5409000399253412
  endloop
endfacet
facet normal -0.6087614290087164 0.7933533402912383 1.1852532715428142e-14
  outer loop
    vertex 369.596011811545 93.77339256305815 7.540900039925319
    vertex 368.995402146104 93.31252855752435 1.5409000399253803
    vertex 368.995402146104 93.31252855752426 7.540900039925359
  endloop
endfacet
facet normal -0.3826834323650969 0.9238795325112839 1.3616143148725669e-14
  outer loop
    vertex 368.29597737690136 93.02281733226084 7.540900039925309
    vertex 368.995402146104 93.31252855752435 1.5409000399253803
    vertex 368.29597737690136 93.02281733226091 1.5409000399253203
  endloop
endfacet
facet normal -0.3826834323650969 0.9238795325112839 1.3616143148725669e-14
  outer loop
    vertex 368.995402146104 93.31252855752435 1.5409000399253803
    vertex 368.29597737690136 93.02281733226084 7.540900039925309
    vertex 368.995402146104 93.31252855752426 7.540900039925359
  endloop
endfacet
facet normal -0.13052619222005032 0.9914448613738107 1.4451835928178113e-14
  outer loop
    vertex 367.54540214610404 92.92400222849922 1.5409000399253305
    vertex 368.29597737690136 93.02281733226084 7.540900039925309
    vertex 368.29597737690136 93.02281733226091 1.5409000399253203
  endloop
endfacet
facet normal -0.13052619222005032 0.9914448613738107 1.4451835928178113e-14
  outer loop
    vertex 368.29597737690136 93.02281733226084 7.540900039925309
    vertex 367.54540214610404 92.92400222849922 1.5409000399253305
    vertex 367.54540214610404 92.92400222849913 7.540900039925308
  endloop
endfacet
facet normal 0.1305261922200491 0.9914448613738107 1.430265997191328e-14
  outer loop
    vertex 366.7948269153067 93.02281733226084 7.540900039925311
    vertex 367.54540214610404 92.92400222849922 1.5409000399253305
    vertex 366.7948269153067 93.02281733226091 1.540900039925321
  endloop
endfacet
facet normal 0.1305261922200491 0.9914448613738107 1.430265997191328e-14
  outer loop
    vertex 367.54540214610404 92.92400222849922 1.5409000399253305
    vertex 366.7948269153067 93.02281733226084 7.540900039925311
    vertex 367.54540214610404 92.92400222849913 7.540900039925308
  endloop
endfacet
facet normal 0.38268343236508906 0.9238795325112872 1.3178781374825728e-14
  outer loop
    vertex 366.09540214610405 93.31252855752435 1.5409000399253592
    vertex 366.7948269153067 93.02281733226084 7.540900039925311
    vertex 366.7948269153067 93.02281733226091 1.540900039925321
  endloop
endfacet
facet normal 0.38268343236508906 0.9238795325112872 1.3178781374825728e-14
  outer loop
    vertex 366.7948269153067 93.02281733226084 7.540900039925311
    vertex 366.09540214610405 93.31252855752435 1.5409000399253592
    vertex 366.09540214610405 93.31252855752426 7.540900039925326
  endloop
endfacet
facet normal 0.6087614290087199 0.7933533402912356 1.115679060600976e-14
  outer loop
    vertex 365.4947924806631 93.77339256305814 7.540900039925321
    vertex 366.09540214610405 93.31252855752435 1.5409000399253592
    vertex 365.4947924806631 93.77339256305822 1.5409000399253434
  endloop
endfacet
facet normal 0.6087614290087199 0.7933533402912356 1.115679060600976e-14
  outer loop
    vertex 366.09540214610405 93.31252855752435 1.5409000399253592
    vertex 365.4947924806631 93.77339256305814 7.540900039925321
    vertex 366.09540214610405 93.31252855752426 7.540900039925326
  endloop
endfacet
facet normal 3.101452013171582e-16 -0.7071067811865611 0.7071067811865339
  outer loop
    vertex 372.2954021461041 90.07400222849915 6.540900039925267
    vertex 362.7954021461041 91.07400222849914 7.540900039925263
    vertex 362.7954021461041 90.07400222849913 6.54090003992525
  endloop
endfacet
facet normal 3.101452013171582e-16 -0.7071067811865611 0.7071067811865339
  outer loop
    vertex 362.7954021461041 91.07400222849914 7.540900039925263
    vertex 372.2954021461041 90.07400222849915 6.540900039925267
    vertex 372.29540214610404 91.07400222849914 7.540900039925257
  endloop
endfacet
facet normal 0.5773502691896201 -0.5773502691896368 0.5773502691896204
  outer loop
    vertex 372.29540214610404 91.07400222849914 7.540900039925257
    vertex 372.2954021461041 90.07400222849915 6.540900039925267
    vertex 373.29540214610404 91.07400222849908 6.540900039925236
  endloop
endfacet
facet normal 0.707106781186534 -0.7071067811865611 -8.581157711751146e-15
  outer loop
    vertex 373.29540214610404 91.07400222849908 6.540900039925236
    vertex 372.2954021461041 90.07400222849921 2.5409000399253427
    vertex 373.2954021461041 91.07400222849914 2.5409000399252886
  endloop
endfacet
facet normal 0.707106781186534 -0.7071067811865611 -8.581157711751146e-15
  outer loop
    vertex 372.2954021461041 90.07400222849921 2.5409000399253427
    vertex 373.29540214610404 91.07400222849908 6.540900039925236
    vertex 372.2954021461041 90.07400222849915 6.540900039925267
  endloop
endfacet
facet normal -0.5773502691896079 -0.5773502691896489 0.5773502691896207
  outer loop
    vertex 362.7954021461041 91.07400222849914 7.540900039925263
    vertex 361.7954021461041 91.07400222849914 6.540900039925265
    vertex 362.7954021461041 90.07400222849913 6.54090003992525
  endloop
endfacet
facet normal -0.5773502691896147 0.5773502691896211 0.5773502691896416
  outer loop
    vertex 361.79540214610404 100.57400222849913 6.540900039925555
    vertex 362.79540214610404 100.57400222849908 7.540900039925564
    vertex 362.7954021461041 101.57400222849908 6.540900039925603
  endloop
endfacet
facet normal -6.583085460914701e-15 0.7071067811865298 0.7071067811865652
  outer loop
    vertex 362.7954021461041 101.57400222849908 6.540900039925603
    vertex 372.295402146104 100.57400222849911 7.540900039925638
    vertex 372.295402146104 101.57400222849911 6.540900039925699
  endloop
endfacet
facet normal -6.583085460914701e-15 0.7071067811865298 0.7071067811865652
  outer loop
    vertex 372.295402146104 100.57400222849911 7.540900039925638
    vertex 362.7954021461041 101.57400222849908 6.540900039925603
    vertex 362.79540214610404 100.57400222849908 7.540900039925564
  endloop
endfacet
facet normal -3.2509328878889633e-15 -3.591313114647352e-14 1.0
  outer loop
    vertex 372.295402146104 100.57400222849911 7.540900039925638
    vertex 369.745402146104 97.67992261948557 7.540900039925361
    vertex 369.7454021461041 93.96808183751268 7.540900039925311
  endloop
endfacet
facet normal -3.2509328878889633e-15 -3.591313114647352e-14 1.0
  outer loop
    vertex 369.745402146104 97.67992261948557 7.540900039925361
    vertex 372.295402146104 100.57400222849911 7.540900039925638
    vertex 369.596011811545 97.87461189394013 7.540900039925376
  endloop
endfacet
facet normal -3.2509328878889633e-15 -3.591313114647352e-14 1.0
  outer loop
    vertex 369.596011811545 97.87461189394013 7.540900039925376
    vertex 372.295402146104 100.57400222849911 7.540900039925638
    vertex 368.995402146104 98.33547589947399 7.540900039925405
  endloop
endfacet
facet normal -3.2509328878889633e-15 -3.591313114647352e-14 1.0
  outer loop
    vertex 368.995402146104 98.33547589947399 7.540900039925405
    vertex 372.295402146104 100.57400222849911 7.540900039925638
    vertex 368.29597737690136 98.62518712473742 7.540900039925386
  endloop
endfacet
facet normal -3.2509328878889633e-15 -3.591313114647352e-14 1.0
  outer loop
    vertex 368.29597737690136 98.62518712473742 7.540900039925386
    vertex 372.295402146104 100.57400222849911 7.540900039925638
    vertex 362.79540214610404 100.57400222849908 7.540900039925564
  endloop
endfacet
facet normal -3.2509328878889633e-15 -3.591313114647352e-14 1.0
  outer loop
    vertex 368.29597737690136 98.62518712473742 7.540900039925386
    vertex 362.79540214610404 100.57400222849908 7.540900039925564
    vertex 367.54540214610404 98.72400222849913 7.540900039925434
  endloop
endfacet
facet normal -3.2509328878889633e-15 -3.591313114647352e-14 1.0
  outer loop
    vertex 367.54540214610404 98.72400222849913 7.540900039925434
    vertex 362.79540214610404 100.57400222849908 7.540900039925564
    vertex 366.7948269153067 98.62518712473742 7.540900039925388
  endloop
endfacet
facet normal -3.2509328878889633e-15 -3.591313114647352e-14 1.0
  outer loop
    vertex 366.7948269153067 98.62518712473742 7.540900039925388
    vertex 362.79540214610404 100.57400222849908 7.540900039925564
    vertex 366.09540214610405 98.33547589947399 7.540900039925384
  endloop
endfacet
facet normal -3.2509328878889633e-15 -3.591313114647352e-14 1.0
  outer loop
    vertex 366.09540214610405 98.33547589947399 7.540900039925384
    vertex 362.79540214610404 100.57400222849908 7.540900039925564
    vertex 365.4947924806631 97.87461189394011 7.540900039925378
  endloop
endfacet
facet normal -3.2509328878889633e-15 -3.591313114647352e-14 1.0
  outer loop
    vertex 365.4947924806631 97.87461189394011 7.540900039925378
    vertex 362.79540214610404 100.57400222849908 7.540900039925564
    vertex 365.34540214610405 97.67992261948557 7.540900039925364
  endloop
endfacet
facet normal -3.2509328878889633e-15 -3.591313114647352e-14 1.0
  outer loop
    vertex 365.34540214610405 97.67992261948557 7.540900039925364
    vertex 362.79540214610404 100.57400222849908 7.540900039925564
    vertex 365.34540214610405 93.96808183751268 7.540900039925325
  endloop
endfacet
facet normal -3.2509328878889633e-15 -3.591313114647352e-14 1.0
  outer loop
    vertex 365.34540214610405 93.96808183751268 7.540900039925325
    vertex 362.79540214610404 100.57400222849908 7.540900039925564
    vertex 362.7954021461041 91.07400222849914 7.540900039925263
  endloop
endfacet
facet normal -3.2509328878889633e-15 -3.591313114647352e-14 1.0
  outer loop
    vertex 372.29540214610404 91.07400222849914 7.540900039925257
    vertex 368.29597737690136 93.02281733226084 7.540900039925309
    vertex 362.7954021461041 91.07400222849914 7.540900039925263
  endloop
endfacet
facet normal -3.2509328878889633e-15 -3.591313114647352e-14 1.0
  outer loop
    vertex 368.29597737690136 93.02281733226084 7.540900039925309
    vertex 372.29540214610404 91.07400222849914 7.540900039925257
    vertex 368.995402146104 93.31252855752426 7.540900039925359
  endloop
endfacet
facet normal -3.2509328878889633e-15 -3.591313114647352e-14 1.0
  outer loop
    vertex 368.995402146104 93.31252855752426 7.540900039925359
    vertex 372.29540214610404 91.07400222849914 7.540900039925257
    vertex 369.596011811545 93.77339256305815 7.540900039925319
  endloop
endfacet
facet normal -3.2509328878889633e-15 -3.591313114647352e-14 1.0
  outer loop
    vertex 369.596011811545 93.77339256305815 7.540900039925319
    vertex 372.29540214610404 91.07400222849914 7.540900039925257
    vertex 369.7454021461041 93.96808183751268 7.540900039925311
  endloop
endfacet
facet normal -3.2509328878889633e-15 -3.591313114647352e-14 1.0
  outer loop
    vertex 369.7454021461041 93.96808183751268 7.540900039925311
    vertex 372.29540214610404 91.07400222849914 7.540900039925257
    vertex 372.295402146104 100.57400222849911 7.540900039925638
  endloop
endfacet
facet normal -3.2509328878889633e-15 -3.591313114647352e-14 1.0
  outer loop
    vertex 362.7954021461041 91.07400222849914 7.540900039925263
    vertex 368.29597737690136 93.02281733226084 7.540900039925309
    vertex 367.54540214610404 92.92400222849913 7.540900039925308
  endloop
endfacet
facet normal -3.2509328878889633e-15 -3.591313114647352e-14 1.0
  outer loop
    vertex 362.7954021461041 91.07400222849914 7.540900039925263
    vertex 367.54540214610404 92.92400222849913 7.540900039925308
    vertex 366.7948269153067 93.02281733226084 7.540900039925311
  endloop
endfacet
facet normal -3.2509328878889633e-15 -3.591313114647352e-14 1.0
  outer loop
    vertex 362.7954021461041 91.07400222849914 7.540900039925263
    vertex 366.7948269153067 93.02281733226084 7.540900039925311
    vertex 366.09540214610405 93.31252855752426 7.540900039925326
  endloop
endfacet
facet normal -3.2509328878889633e-15 -3.591313114647352e-14 1.0
  outer loop
    vertex 362.7954021461041 91.07400222849914 7.540900039925263
    vertex 366.09540214610405 93.31252855752426 7.540900039925326
    vertex 365.4947924806631 93.77339256305814 7.540900039925321
  endloop
endfacet
facet normal -3.2509328878889633e-15 -3.591313114647352e-14 1.0
  outer loop
    vertex 362.7954021461041 91.07400222849914 7.540900039925263
    vertex 365.4947924806631 93.77339256305814 7.540900039925321
    vertex 365.34540214610405 93.96808183751268 7.540900039925325
  endloop
endfacet
facet normal 0.577350269189713 0.5773502691895661 0.5773502691895984
  outer loop
    vertex 373.295402146104 100.57400222849907 6.540900039925436
    vertex 372.295402146104 101.57400222849911 6.540900039925699
    vertex 372.295402146104 100.57400222849911 7.540900039925638
  endloop
endfacet
facet normal 0.7071067811865848 -1.7960312119920468e-14 0.7071067811865103
  outer loop
    vertex 372.29540214610404 91.07400222849914 7.540900039925257
    vertex 373.295402146104 100.57400222849907 6.540900039925436
    vertex 372.295402146104 100.57400222849911 7.540900039925638
  endloop
endfacet
facet normal 0.7071067811865848 -1.7960312119920468e-14 0.7071067811865103
  outer loop
    vertex 373.295402146104 100.57400222849907 6.540900039925436
    vertex 372.29540214610404 91.07400222849914 7.540900039925257
    vertex 373.29540214610404 91.07400222849908 6.540900039925236
  endloop
endfacet
facet normal -0.5773502691896171 0.57735026918964 -0.5773502691896202
  outer loop
    vertex 362.79540214610415 101.57400222849915 2.540900039925305
    vertex 362.79540214610415 100.57400222849918 1.5409000399252928
    vertex 361.79540214610415 100.5740022284992 2.540900039925269
  endloop
endfacet
facet normal 1.3937121663859902e-14 9.791336360766187e-15 -1.0
  outer loop
    vertex 372.2954021461041 91.07400222849922 1.540900039925336
    vertex 369.7454021461041 93.96808183751277 1.5409000399253214
    vertex 372.2954021461041 100.5740022284989 1.5409000399254684
  endloop
endfacet
facet normal 1.3937121663859902e-14 9.791336360766187e-15 -1.0
  outer loop
    vertex 369.7454021461041 93.96808183751277 1.5409000399253214
    vertex 372.2954021461041 91.07400222849922 1.540900039925336
    vertex 369.59601181154505 93.77339256305822 1.5409000399253412
  endloop
endfacet
facet normal 1.3937121663859902e-14 9.791336360766187e-15 -1.0
  outer loop
    vertex 369.59601181154505 93.77339256305822 1.5409000399253412
    vertex 372.2954021461041 91.07400222849922 1.540900039925336
    vertex 368.995402146104 93.31252855752435 1.5409000399253803
  endloop
endfacet
facet normal 1.3937121663859902e-14 9.791336360766187e-15 -1.0
  outer loop
    vertex 368.995402146104 93.31252855752435 1.5409000399253803
    vertex 372.2954021461041 91.07400222849922 1.540900039925336
    vertex 368.29597737690136 93.02281733226091 1.5409000399253203
  endloop
endfacet
facet normal 1.3937121663859902e-14 9.791336360766187e-15 -1.0
  outer loop
    vertex 368.29597737690136 93.02281733226091 1.5409000399253203
    vertex 372.2954021461041 91.07400222849922 1.540900039925336
    vertex 362.7954021461041 91.07400222849903 1.5409000399252395
  endloop
endfacet
facet normal 1.3937121663859902e-14 9.791336360766187e-15 -1.0
  outer loop
    vertex 368.29597737690136 93.02281733226091 1.5409000399253203
    vertex 362.7954021461041 91.07400222849903 1.5409000399252395
    vertex 367.54540214610404 92.92400222849922 1.5409000399253305
  endloop
endfacet
facet normal 1.3937121663859902e-14 9.791336360766187e-15 -1.0
  outer loop
    vertex 367.54540214610404 92.92400222849922 1.5409000399253305
    vertex 362.7954021461041 91.07400222849903 1.5409000399252395
    vertex 366.7948269153067 93.02281733226091 1.540900039925321
  endloop
endfacet
facet normal 1.3937121663859902e-14 9.791336360766187e-15 -1.0
  outer loop
    vertex 366.7948269153067 93.02281733226091 1.540900039925321
    vertex 362.7954021461041 91.07400222849903 1.5409000399252395
    vertex 366.09540214610405 93.31252855752435 1.5409000399253592
  endloop
endfacet
facet normal 1.3937121663859902e-14 9.791336360766187e-15 -1.0
  outer loop
    vertex 366.09540214610405 93.31252855752435 1.5409000399253592
    vertex 362.7954021461041 91.07400222849903 1.5409000399252395
    vertex 365.4947924806631 93.77339256305822 1.5409000399253434
  endloop
endfacet
facet normal 1.3937121663859902e-14 9.791336360766187e-15 -1.0
  outer loop
    vertex 365.4947924806631 93.77339256305822 1.5409000399253434
    vertex 362.7954021461041 91.07400222849903 1.5409000399252395
    vertex 365.34540214610405 93.96808183751277 1.540900039925335
  endloop
endfacet
facet normal 1.3937121663859902e-14 9.791336360766187e-15 -1.0
  outer loop
    vertex 365.34540214610405 93.96808183751277 1.540900039925335
    vertex 362.7954021461041 91.07400222849903 1.5409000399252395
    vertex 362.79540214610415 100.57400222849918 1.5409000399252928
  endloop
endfacet
facet normal 1.3937121663859902e-14 9.791336360766187e-15 -1.0
  outer loop
    vertex 372.2954021461041 100.5740022284989 1.5409000399254684
    vertex 368.29597737690136 98.62518712473751 1.5409000399253983
    vertex 362.79540214610415 100.57400222849918 1.5409000399252928
  endloop
endfacet
facet normal 1.3937121663859902e-14 9.791336360766187e-15 -1.0
  outer loop
    vertex 368.29597737690136 98.62518712473751 1.5409000399253983
    vertex 372.2954021461041 100.5740022284989 1.5409000399254684
    vertex 368.995402146104 98.33547589947408 1.5409000399254051
  endloop
endfacet
facet normal 1.3937121663859902e-14 9.791336360766187e-15 -1.0
  outer loop
    vertex 368.995402146104 98.33547589947408 1.5409000399254051
    vertex 372.2954021461041 100.5740022284989 1.5409000399254684
    vertex 369.59601181154505 97.8746118939402 1.5409000399253983
  endloop
endfacet
facet normal 1.3937121663859902e-14 9.791336360766187e-15 -1.0
  outer loop
    vertex 369.59601181154505 97.8746118939402 1.5409000399253983
    vertex 372.2954021461041 100.5740022284989 1.5409000399254684
    vertex 369.7454021461041 97.67992261948565 1.5409000399253843
  endloop
endfacet
facet normal 1.3937121663859902e-14 9.791336360766187e-15 -1.0
  outer loop
    vertex 369.7454021461041 97.67992261948565 1.5409000399253843
    vertex 372.2954021461041 100.5740022284989 1.5409000399254684
    vertex 369.7454021461041 93.96808183751277 1.5409000399253214
  endloop
endfacet
facet normal 1.3937121663859902e-14 9.791336360766187e-15 -1.0
  outer loop
    vertex 362.79540214610415 100.57400222849918 1.5409000399252928
    vertex 368.29597737690136 98.62518712473751 1.5409000399253983
    vertex 367.54540214610404 98.7240022284992 1.5409000399254564
  endloop
endfacet
facet normal 1.3937121663859902e-14 9.791336360766187e-15 -1.0
  outer loop
    vertex 362.79540214610415 100.57400222849918 1.5409000399252928
    vertex 367.54540214610404 98.7240022284992 1.5409000399254564
    vertex 366.7948269153067 98.62518712473751 1.540900039925399
  endloop
endfacet
facet normal 1.3937121663859902e-14 9.791336360766187e-15 -1.0
  outer loop
    vertex 362.79540214610415 100.57400222849918 1.5409000399252928
    vertex 366.7948269153067 98.62518712473751 1.540900039925399
    vertex 366.09540214610405 98.33547589947408 1.5409000399254067
  endloop
endfacet
facet normal 1.3937121663859902e-14 9.791336360766187e-15 -1.0
  outer loop
    vertex 362.79540214610415 100.57400222849918 1.5409000399252928
    vertex 366.09540214610405 98.33547589947408 1.5409000399254067
    vertex 365.4947924806631 97.87461189394018 1.5409000399254005
  endloop
endfacet
facet normal 1.3937121663859902e-14 9.791336360766187e-15 -1.0
  outer loop
    vertex 362.79540214610415 100.57400222849918 1.5409000399252928
    vertex 365.4947924806631 97.87461189394018 1.5409000399254005
    vertex 365.3454021461041 97.67992261948565 1.5409000399253752
  endloop
endfacet
facet normal 1.3937121663859902e-14 9.791336360766187e-15 -1.0
  outer loop
    vertex 362.79540214610415 100.57400222849918 1.5409000399252928
    vertex 365.3454021461041 97.67992261948565 1.5409000399253752
    vertex 365.34540214610405 93.96808183751277 1.540900039925335
  endloop
endfacet
facet normal 3.495101148716902e-14 0.7071067811865572 -0.7071067811865379
  outer loop
    vertex 372.2954021461041 100.5740022284989 1.5409000399254684
    vertex 362.79540214610415 101.57400222849915 2.540900039925305
    vertex 372.2954021461041 101.57400222849887 2.5409000399254915
  endloop
endfacet
facet normal 3.495101148716902e-14 0.7071067811865572 -0.7071067811865379
  outer loop
    vertex 362.79540214610415 101.57400222849915 2.540900039925305
    vertex 372.2954021461041 100.5740022284989 1.5409000399254684
    vertex 362.79540214610415 100.57400222849918 1.5409000399252928
  endloop
endfacet
facet normal 1.5308368607835554e-14 1.0 -2.159934316864521e-14
  outer loop
    vertex 362.7954021461041 101.57400222849908 6.540900039925603
    vertex 372.2954021461041 101.57400222849887 2.5409000399254915
    vertex 362.79540214610415 101.57400222849915 2.540900039925305
  endloop
endfacet
facet normal 1.5308368607835554e-14 1.0 -2.159934316864521e-14
  outer loop
    vertex 372.2954021461041 101.57400222849887 2.5409000399254915
    vertex 362.7954021461041 101.57400222849908 6.540900039925603
    vertex 372.295402146104 101.57400222849911 6.540900039925699
  endloop
endfacet
facet normal 0.5773502691894906 0.5773502691896977 -0.577350269189689
  outer loop
    vertex 372.2954021461041 100.5740022284989 1.5409000399254684
    vertex 372.2954021461041 101.57400222849887 2.5409000399254915
    vertex 373.2954021461041 100.57400222849915 2.540900039925421
  endloop
endfacet
facet normal 0.7071067811865313 9.953320089481505e-15 -0.7071067811865638
  outer loop
    vertex 373.2954021461041 91.07400222849914 2.5409000399252886
    vertex 372.2954021461041 100.5740022284989 1.5409000399254684
    vertex 373.2954021461041 100.57400222849915 2.540900039925421
  endloop
endfacet
facet normal 0.7071067811865313 9.953320089481505e-15 -0.7071067811865638
  outer loop
    vertex 372.2954021461041 100.5740022284989 1.5409000399254684
    vertex 373.2954021461041 91.07400222849914 2.5409000399252886
    vertex 372.2954021461041 91.07400222849922 1.540900039925336
  endloop
endfacet
facet normal 0.7071067811864982 0.7071067811865969 -2.747279898778526e-15
  outer loop
    vertex 372.2954021461041 101.57400222849887 2.5409000399254915
    vertex 373.295402146104 100.57400222849907 6.540900039925436
    vertex 373.2954021461041 100.57400222849915 2.540900039925421
  endloop
endfacet
facet normal 0.7071067811864982 0.7071067811865969 -2.747279898778526e-15
  outer loop
    vertex 373.295402146104 100.57400222849907 6.540900039925436
    vertex 372.2954021461041 101.57400222849887 2.5409000399254915
    vertex 372.295402146104 101.57400222849911 6.540900039925699
  endloop
endfacet
facet normal 0.5773502691895892 -0.5773502691896347 -0.5773502691896536
  outer loop
    vertex 372.2954021461041 91.07400222849922 1.540900039925336
    vertex 373.2954021461041 91.07400222849914 2.5409000399252886
    vertex 372.2954021461041 90.07400222849921 2.5409000399253427
  endloop
endfacet
facet normal 2.1698141436488634e-14 -0.7071067811865378 -0.7071067811865572
  outer loop
    vertex 372.2954021461041 91.07400222849922 1.540900039925336
    vertex 362.7954021461041 90.074002228499 2.5409000399252353
    vertex 362.7954021461041 91.07400222849903 1.5409000399252395
  endloop
endfacet
facet normal 2.1698141436488634e-14 -0.7071067811865378 -0.7071067811865572
  outer loop
    vertex 362.7954021461041 90.074002228499 2.5409000399252353
    vertex 372.2954021461041 91.07400222849922 1.540900039925336
    vertex 372.2954021461041 90.07400222849921 2.5409000399253427
  endloop
endfacet
facet normal -0.5773502691897011 -0.5773502691895834 -0.577350269189593
  outer loop
    vertex 362.7954021461041 90.074002228499 2.5409000399252353
    vertex 361.7954021461041 91.0740022284992 2.540900039925204
    vertex 362.7954021461041 91.07400222849903 1.5409000399252395
  endloop
endfacet
endsolid Rover Old Parts
